<?xml version="1.0" encoding="UTF-8"?> <svg xmlns="http://www.w3.org/2000/svg" width="68" height="44" viewBox="0 0 68 44" fill="none"> <path d="M0.83847 35.1728C0.83847 43.882 23.8429 45.8694 40.0639 41.479C63.3632 35.1728 67.4922 24.0619 67.4922 11.7492C63.3632 -1.46401 47.1422 0.0373585 37.9994 2.13933C12.8345 7.92487 0.83847 19.2571 0.83847 35.1728Z" fill="#8BC400"></path> <path d="M12.6601 33.9297V32.8745L13.6948 32.669V27.7837L12.6053 27.5781V26.5161H15.2775L15.3597 27.4891C15.6018 27.1373 15.9033 26.8655 16.2642 26.6737C16.6296 26.4773 17.0521 26.3791 17.5317 26.3791C18.0159 26.3791 18.4293 26.4887 18.7719 26.708C19.1191 26.9226 19.3817 27.2492 19.5598 27.6878C19.7882 27.2812 20.0874 26.9615 20.4574 26.7285C20.832 26.4955 21.2705 26.3791 21.773 26.3791C22.5175 26.3791 23.1022 26.6326 23.527 27.1396C23.9564 27.6466 24.1711 28.414 24.1711 29.4418V32.669L25.2057 32.8745V33.9297H21.4715V32.8745L22.4444 32.669V29.4349C22.4444 28.8092 22.3394 28.3706 22.1292 28.1194C21.9191 27.8682 21.6108 27.7426 21.2043 27.7426C20.8251 27.7426 20.5122 27.8636 20.2656 28.1057C20.0235 28.3478 19.8659 28.6561 19.7928 29.0307V32.669L20.7315 32.8745V33.9297H17.1343V32.8745L18.073 32.669V29.4349C18.073 28.832 17.9657 28.4003 17.751 28.14C17.5363 27.875 17.2257 27.7426 16.8191 27.7426C16.4811 27.7426 16.1956 27.8111 15.9627 27.9481C15.7343 28.0852 15.5516 28.2793 15.4145 28.5305V32.669L16.3806 32.8745V33.9297H12.6601ZM25.9662 33.9297V32.8745L26.994 32.669V27.7837L25.9114 27.5781V26.5161H28.5836L28.6727 27.5918C28.9193 27.2081 29.2254 26.9112 29.5908 26.7011C29.9608 26.4864 30.3787 26.3791 30.8447 26.3791C31.6075 26.3791 32.2013 26.6143 32.6261 27.0848C33.0509 27.5507 33.2633 28.2816 33.2633 29.2774V32.669L34.2911 32.8745V33.9297H30.5706V32.8745L31.5367 32.669V29.2911C31.5367 28.7292 31.4248 28.3318 31.201 28.0989C30.9771 27.8613 30.6437 27.7426 30.2006 27.7426C29.8671 27.7426 29.5748 27.8179 29.3236 27.9687C29.0769 28.1148 28.8759 28.3204 28.7206 28.5853V32.669L29.6593 32.8745V33.9297H25.9662ZM38.4295 34.0736C37.717 34.0736 37.1049 33.9137 36.5933 33.594C36.0817 33.2742 35.6888 32.8311 35.4148 32.2647C35.1407 31.6937 35.0037 31.0383 35.0037 30.2983V30.1544C35.0037 29.419 35.1407 28.768 35.4148 28.2016C35.6888 27.6352 36.0817 27.1899 36.5933 26.8655C37.1049 26.5412 37.7124 26.3791 38.4158 26.3791C39.1284 26.3791 39.7405 26.5412 40.2521 26.8655C40.7637 27.1853 41.1565 27.6284 41.4306 28.1948C41.7047 28.7612 41.8417 29.4144 41.8417 30.1544V30.2983C41.8417 31.0383 41.7047 31.6937 41.4306 32.2647C41.1565 32.8311 40.7637 33.2742 40.2521 33.594C39.7451 33.9137 39.1375 34.0736 38.4295 34.0736ZM38.4295 32.7443C38.8132 32.7443 39.1284 32.6416 39.3751 32.436C39.6263 32.2259 39.8136 31.9381 39.9369 31.5727C40.0603 31.2027 40.1219 30.7779 40.1219 30.2983V30.1544C40.1219 29.6793 40.0603 29.2591 39.9369 28.8937C39.8136 28.5282 39.6263 28.2405 39.3751 28.0303C39.1238 27.8202 38.8041 27.7152 38.4158 27.7152C38.0367 27.7152 37.7215 27.8202 37.4703 28.0303C37.2191 28.2405 37.0318 28.5282 36.9085 28.8937C36.7897 29.2591 36.7303 29.6793 36.7303 30.1544V30.2983C36.7303 30.7779 36.7897 31.2027 36.9085 31.5727C37.0318 31.9381 37.2191 32.2259 37.4703 32.436C37.7261 32.6416 38.0458 32.7443 38.4295 32.7443Z" fill="#27360D"></path> <path d="M55.3577 24.4815C54.3094 24.4815 53.381 24.2416 52.5725 23.762C51.7709 23.2755 51.1439 22.5801 50.6917 21.6757C50.2395 20.7644 50.0134 19.6784 50.0134 18.4177V15.7866C50.0134 14.3751 50.2669 13.1727 50.7739 12.1792C51.2878 11.1788 51.997 10.4148 52.9014 9.88725C53.8058 9.35281 54.8439 9.0856 56.0155 9.0856C56.5774 9.0856 57.0947 9.14041 57.5674 9.25004C58.0471 9.35281 58.5267 9.50698 59.0063 9.71253L58.4821 11.9017C58.1121 11.7715 57.7284 11.6619 57.331 11.5728C56.9336 11.4837 56.5225 11.4392 56.0977 11.4392C55.1111 11.4392 54.3608 11.7646 53.8469 12.4155C53.3399 13.0665 53.083 14.0257 53.0761 15.2933L53.1069 15.3447C53.4427 14.9952 53.8675 14.7212 54.3814 14.5225C54.9021 14.3238 55.4742 14.2244 56.0977 14.2244C56.9953 14.2244 57.7661 14.4402 58.4102 14.8719C59.0543 15.3035 59.5476 15.8997 59.8902 16.6602C60.2328 17.4207 60.4041 18.2909 60.4041 19.2707C60.4041 20.2779 60.1882 21.1755 59.7566 21.9634C59.3318 22.7445 58.7391 23.3612 57.9785 23.8134C57.2248 24.2588 56.3512 24.4815 55.3577 24.4815ZM55.2961 22.1793C55.7277 22.1793 56.1012 22.0491 56.4163 21.7887C56.7315 21.5284 56.9748 21.1755 57.146 20.7301C57.3173 20.2779 57.403 19.7777 57.403 19.2296C57.403 18.4279 57.2043 17.7736 56.8069 17.2666C56.4163 16.7527 55.8613 16.4958 55.1419 16.4958C54.8336 16.4958 54.5424 16.5369 54.2683 16.6191C53.9942 16.7013 53.751 16.8178 53.5386 16.9685C53.3262 17.1124 53.1481 17.2871 53.0042 17.4927V18.4896C53.0042 19.675 53.2166 20.5862 53.6414 21.2235C54.0662 21.8607 54.6178 22.1793 55.2961 22.1793Z" fill="#27360D"></path> </svg> 