<?xml version="1.0" encoding="UTF-8"?> <svg xmlns="http://www.w3.org/2000/svg" width="72" height="40" viewBox="0 0 72 40" fill="none"> <path d="M71.1404 15.3253C71.1404 31.5241 55.0434 39.7707 35.917 39.7707C16.7906 39.7707 0.101562 30.0515 0.101563 15.3253C0.101563 6.19514 22.0052 0.304688 35.917 0.304688C48.3488 0.304688 71.1404 4.4271 71.1404 15.3253Z" fill="#8BC400"></path> <path d="M34.0515 26.5892C33.4211 26.5892 32.93 26.4133 32.5783 26.0616C32.2266 25.7053 32.0507 25.1389 32.0507 24.3624V20.2787H30.9682V19.0454H32.0507V17.2434H33.7705V19.0454H35.2368V20.2787H33.7705V24.3624C33.7705 24.6775 33.8345 24.9082 33.9624 25.0544C34.0948 25.196 34.273 25.2668 34.4968 25.2668C34.6247 25.2668 34.7663 25.2554 34.9216 25.2325C35.0815 25.2097 35.2094 25.1868 35.3053 25.164L35.4835 26.3768C35.2825 26.4361 35.0518 26.4864 34.7914 26.5275C34.5356 26.5686 34.289 26.5892 34.0515 26.5892ZM39.4849 26.6029C38.6901 26.6029 38.0689 26.3516 37.6212 25.8492C37.1781 25.3422 36.9566 24.5565 36.9566 23.4922V20.313L36.1207 20.1074V19.0454H36.9566H38.6832V23.5059C38.6832 24.1454 38.7837 24.5953 38.9847 24.8557C39.1903 25.1115 39.5054 25.2394 39.9302 25.2394C40.3048 25.2394 40.6223 25.1663 40.8826 25.0201C41.1476 24.8694 41.3577 24.657 41.513 24.3829V20.313L40.5812 20.1074V19.0454H41.513H43.2396V25.1983L44.1167 25.4038V26.459H41.7117L41.5952 25.4518C41.3623 25.8218 41.0653 26.1073 40.7045 26.3082C40.3482 26.5047 39.9417 26.6029 39.4849 26.6029ZM47.7481 26.459L45.3431 20.2239L44.5552 20.1074V19.0454H47.9468V20.1074L47.0903 20.2445L48.4264 23.965L48.6045 24.5542H48.6457L48.8512 23.965L50.201 20.2445L49.2623 20.1074V19.0454H52.6471V20.1074L51.8386 20.2308L49.4268 26.459H47.7481Z" fill="#27360D"></path> <path d="M18.1872 27.5361C17.1731 27.5361 16.2824 27.3717 15.515 27.0428C14.7476 26.7071 14.1481 26.2206 13.7164 25.5834C13.2916 24.9393 13.0792 24.1548 13.0792 23.2298C13.0792 22.4213 13.3088 21.7087 13.7678 21.0921C14.2269 20.4686 14.8504 19.989 15.6383 19.6532C14.9395 19.3312 14.3948 18.8824 14.0042 18.3068C13.6137 17.7313 13.4184 17.0701 13.4184 16.3233C13.4184 15.4325 13.6171 14.6789 14.0145 14.0622C14.4119 13.4387 14.9669 12.9625 15.6795 12.6336C16.392 12.3047 17.2211 12.1403 18.1666 12.1403C19.119 12.1403 19.9515 12.3047 20.6641 12.6336C21.3835 12.9625 21.9419 13.4387 22.3394 14.0622C22.7368 14.6789 22.9355 15.4325 22.9355 16.3233C22.9355 17.0701 22.7368 17.7313 22.3394 18.3068C21.9419 18.8824 21.3972 19.3312 20.7052 19.6532C21.5 19.989 22.1269 20.4686 22.586 21.0921C23.0451 21.7156 23.2746 22.4282 23.2746 23.2298C23.2746 24.1548 23.0588 24.9393 22.6271 25.5834C22.2023 26.2206 21.6096 26.7071 20.8491 27.0428C20.0886 27.3717 19.2013 27.5361 18.1872 27.5361ZM18.1872 25.234C18.6052 25.234 18.9717 25.1449 19.2869 24.9667C19.6021 24.7886 19.8453 24.5351 20.0166 24.2062C20.1948 23.8705 20.2838 23.4765 20.2838 23.0243C20.2838 22.5721 20.1913 22.1815 20.0063 21.8526C19.8282 21.5237 19.5815 21.2668 19.2663 21.0818C18.9512 20.8968 18.5846 20.8043 18.1666 20.8043C17.7555 20.8043 17.3924 20.8968 17.0772 21.0818C16.762 21.2668 16.5154 21.5272 16.3372 21.8629C16.1659 22.1918 16.0803 22.5789 16.0803 23.0243C16.0803 23.7094 16.2721 24.2507 16.6558 24.6481C17.0395 25.0387 17.55 25.234 18.1872 25.234ZM18.1872 18.4918C18.5435 18.4918 18.8518 18.4096 19.1122 18.2452C19.3794 18.0739 19.5815 17.8375 19.7186 17.536C19.8624 17.2277 19.9344 16.868 19.9344 16.4569C19.9344 16.0526 19.8624 15.7032 19.7186 15.4086C19.5747 15.1071 19.3691 14.8741 19.1019 14.7097C18.8415 14.5384 18.5298 14.4527 18.1666 14.4527C17.6185 14.4527 17.1903 14.6343 16.8819 14.9975C16.5805 15.3537 16.4297 15.8402 16.4297 16.4569C16.4297 17.0804 16.5839 17.5771 16.8922 17.9471C17.2005 18.3103 17.6322 18.4918 18.1872 18.4918Z" fill="#27360D"></path> </svg> 