<?xml version="1.0" encoding="UTF-8"?> <svg xmlns="http://www.w3.org/2000/svg" width="181" height="81" viewBox="0 0 181 81" fill="none"> <rect x="66.2266" y="6.13281" width="28.2104" height="71.1392" fill="#81A958"></rect> <rect x="79.7188" y="14.7168" width="28.2104" height="63.78" fill="#81A958"></rect> <rect x="44.1562" y="36.7949" width="114.068" height="41.7023" fill="#81A958"></rect> <rect x="36.7969" y="36.7949" width="128.787" height="40.4758" fill="#81A958"></rect> <rect x="36.7969" y="44.1562" width="136.146" height="35.5696" fill="#81A958"></rect> <rect x="14.7109" y="47.834" width="136.146" height="30.6635" fill="#81A958"></rect> <rect x="7.35938" y="55.1953" width="136.146" height="23.3042" fill="#81A958"></rect> <rect x="51.5156" y="14.7168" width="28.2104" height="63.78" fill="#81A958"></rect> <path fill-rule="evenodd" clip-rule="evenodd" d="M94.4435 0H66.2331V7.35923H51.5146V14.7185H44.1554V29.4369H36.7962L36.7961 40.4758H14.7185V47.835L7.35923 47.835V55.1942H0V73.5923H7.35923V80.9515H172.942V73.5923H180.301V44.1554H172.942V36.7962H165.583V29.4369H158.223V22.0777H137.372V29.4369H130.013V36.7962H122.654V29.4369H115.295V36.7962H122.654L122.654 44.1554H130.013V36.7962H137.372L137.372 29.4369H158.223V36.7962H165.583V44.1554H172.942V73.5923H7.35923V55.1942L14.7185 55.1942V47.835H36.7961V40.4758H44.1554L44.1554 29.4369H51.5146L51.5146 14.7185H66.2331V7.35923H94.4435V14.7185H107.935L107.935 29.4369H115.295V14.7185H107.935V7.35923H94.4435V0Z" fill="#24310E"></path> <rect x="107.938" y="29.4375" width="7.35923" height="7.35923" fill="#81A958"></rect> <rect x="44.1562" y="29.4375" width="7.35923" height="7.35923" fill="#81A958"></rect> <rect x="137.367" y="29.4375" width="20.8512" height="7.35923" fill="#81A958"></rect> </svg> 