<?xml version="1.0" encoding="UTF-8"?> <svg xmlns="http://www.w3.org/2000/svg" width="286" height="572" viewBox="0 0 286 572" fill="none"> <rect x="90.5" y="149.5" width="158" height="118" stroke="#8BC400" stroke-width="3"></rect> <path d="M56 1.68164L167.409 286.841M283 570.752L167.409 286.841M167.409 286.841L282.5 1.68164M167.409 286.841L55.5 570.752M167.409 286.841L166.989 1.68164V570.752" stroke="#8BC400" stroke-opacity="0.3" stroke-width="3"></path> <path d="M90.5 1.68164L89.345 571.376" stroke="#8BC400" stroke-opacity="0.3" stroke-width="3"></path> <path d="M248.5 1.68164V571.376" stroke="#8BC400" stroke-opacity="0.3" stroke-width="3"></path> <rect x="55.5" y="1.5" width="228" height="569" stroke="#8BC400" stroke-opacity="0.3" stroke-width="3"></rect> <path d="M55 147.489C58.3751 84.3148 64.5636 51.8682 81.4449 10.3134C154.168 -0.62666 188.877 -0.626906 258.295 9.47252C277.38 44.0429 280.262 78.4871 284 147.489V390.894C280.138 484.437 276.029 521.526 266.807 546.466C263.881 551.932 261.825 554.648 256.983 558.471C246.176 570.977 103.723 577.98 78.6706 554.47C78.6706 554.47 74.7408 551.968 70.3199 543.965C59.643 483.67 58.1723 454.283 55.1124 393.14L55 390.894V147.489Z" stroke="#8BC400" stroke-width="3"></path> <path d="M90 373.5L167 287" stroke="#8BC400" stroke-opacity="0.3" stroke-width="3"></path> <path d="M248 376.5L168 287" stroke="#8BC400" stroke-opacity="0.3" stroke-width="3"></path> <circle cx="56" cy="393" r="4" fill="#8BC400"></circle> <circle cx="55" cy="149" r="4" fill="#8BC400"></circle> <path d="M7.33789 267.205C6.64779 267.205 6.04883 267.075 5.54102 266.814C5.0332 266.548 4.61003 266.157 4.27148 265.643L4.0957 267H2.43555V253.279L0.84375 253.006V251.766H4.35938V257.684C4.69141 257.215 5.10156 256.857 5.58984 256.609C6.08464 256.362 6.66081 256.238 7.31836 256.238C8.19076 256.238 8.93294 256.476 9.54492 256.951C10.1634 257.42 10.6354 258.081 10.9609 258.934C11.293 259.786 11.459 260.779 11.459 261.912V262.117C11.459 263.133 11.293 264.021 10.9609 264.783C10.6354 265.545 10.1634 266.141 9.54492 266.57C8.93294 266.993 8.19727 267.205 7.33789 267.205ZM6.84961 265.643C7.75456 265.643 8.42513 265.32 8.86133 264.676C9.30404 264.031 9.52539 263.178 9.52539 262.117V261.912C9.52539 261.098 9.42773 260.385 9.23242 259.773C9.03711 259.155 8.74089 258.673 8.34375 258.328C7.94661 257.977 7.44206 257.801 6.83008 257.801C6.23763 257.801 5.73633 257.944 5.32617 258.23C4.92253 258.517 4.60026 258.901 4.35938 259.383V264.051C4.60026 264.539 4.92578 264.926 5.33594 265.213C5.7526 265.499 6.25716 265.643 6.84961 265.643Z" fill="#8BC400"></path> <path d="M44 149.5H30M30 149.5V3H44M30 149.5V392.5H44" stroke="#8BC400" stroke-width="3"></path> </svg> 