<?xml version="1.0" encoding="UTF-8"?> <svg xmlns="http://www.w3.org/2000/svg" width="1196" height="105" viewBox="0 0 1196 105" fill="none"> <rect width="18.0301" height="18.0301" transform="matrix(1 0 0 -1 855.43 41.0645)" fill="#8BC400" stroke="#8BC400" stroke-width="3"></rect> <rect width="18.0301" height="18.0301" transform="matrix(1 0 0 -1 795.336 81.1309)" fill="#8BC400" stroke="#8BC400" stroke-width="3"></rect> <rect width="18.0301" height="18.0301" transform="matrix(1 0 0 -1 755.273 41.0645)" fill="#8BC400" stroke="#8BC400" stroke-width="3"></rect> <rect width="18.0301" height="18.0301" transform="matrix(1 0 0 -1 835 60.166)" fill="#8BC400" stroke="#8BC400" stroke-width="3"></rect> <rect width="18.0301" height="18.0301" transform="matrix(1 0 0 -1 994 83.166)" fill="#8BC400" stroke="#8BC400" stroke-width="3"></rect> <rect width="18.0301" height="18.0301" transform="matrix(1 0 0 -1 1116 82.166)" fill="#8BC400" stroke="#8BC400" stroke-width="3"></rect> <rect width="18.0301" height="18.0301" transform="matrix(1 0 0 -1 1176 63.166)" fill="#8BC400" stroke="#8BC400" stroke-width="3"></rect> <rect width="18.0301" height="18.0301" transform="matrix(1 0 0 -1 735.242 91.1465)" fill="#8BC400" stroke="#8BC400" stroke-width="3"></rect> <rect width="18.0301" height="18.0301" transform="matrix(1 0 0 -1 735.242 61.0977)" fill="#8BC400" stroke="#8BC400" stroke-width="3"></rect> <rect width="18.0301" height="18.0301" transform="matrix(1 0 0 -1 695.164 40.0625)" fill="#8BC400" stroke="#8BC400" stroke-width="3"></rect> <rect width="18.0301" height="18.0301" transform="matrix(1 0 0 -1 696.172 71.1152)" fill="#8BC400" stroke="#8BC400" stroke-width="3"></rect> <rect width="18.0301" height="18.0301" transform="matrix(1 0 0 -1 594.484 60.7715)" fill="#8BC400" stroke="#8BC400" stroke-width="3"></rect> <rect width="18.0301" height="18.0301" transform="matrix(1 0 0 -1 394.648 21)" fill="#8BC400" stroke="#8BC400" stroke-width="3"></rect> <rect width="18.0301" height="18.0301" transform="matrix(1 0 0 -1 1055.28 40.4004)" fill="#8BC400" stroke="#8BC400" stroke-width="3"></rect> <rect width="18.0301" height="18.0301" transform="matrix(1 0 0 -1 994.164 20.998)" fill="#8BC400" stroke="#8BC400" stroke-width="3"></rect> <rect width="18.0301" height="18.0301" transform="matrix(1 0 0 -1 554.938 82.1348)" fill="#8BC400" stroke="#8BC400" stroke-width="3"></rect> <rect width="18.4317" height="18.4317" transform="matrix(1 0 0 -1 614.852 59.2324)" fill="#8BC400" stroke="#8BC400" stroke-width="3"></rect> <rect width="18.0301" height="18.0301" transform="matrix(1 0 0 -1 855.43 101.197)" fill="#8BC400" stroke="#8BC400" stroke-width="3"></rect> <rect width="18.0301" height="18.0301" transform="matrix(1 0 0 -1 895.211 20.998)" fill="#8BC400" stroke="#8BC400" stroke-width="3"></rect> <rect width="18.0301" height="18.0301" transform="matrix(1 0 0 -1 916 103.156)" fill="#8BC400" stroke="#8BC400" stroke-width="3"></rect> <rect width="18.0301" height="18.0301" transform="matrix(1 0 0 -1 575.078 41.3711)" fill="#8BC400" stroke="#8BC400" stroke-width="3"></rect> <rect width="18.0301" height="18.0301" transform="matrix(1 0 0 -1 554.711 61.7441)" fill="#8BC400" stroke="#8BC400" stroke-width="3"></rect> <rect width="18.0301" height="18.0301" transform="matrix(1 0 0 -1 514.938 41.3711)" fill="#8BC400" stroke="#8BC400" stroke-width="3"></rect> <rect width="18.0301" height="18.0301" transform="matrix(1 0 0 -1 514.938 61.7441)" fill="#8BC400" stroke="#8BC400" stroke-width="3"></rect> <rect width="18.4317" height="18.4317" transform="matrix(1 0 0 -1 614.852 38.8613)" fill="#8BC400" stroke="#8BC400" stroke-width="3"></rect> <rect width="18.0301" height="18.0301" transform="matrix(1 0 0 -1 855.43 81.1621)" fill="#8BC400" stroke="#8BC400" stroke-width="3"></rect> <rect width="18.0301" height="18.0301" transform="matrix(1 0 0 -1 937 82.1641)" fill="#8BC400" stroke="#8BC400" stroke-width="3"></rect> <rect width="18.0301" height="18.0301" transform="matrix(1 0 0 -1 574.969 82.1348)" fill="#8BC400" stroke="#8BC400" stroke-width="3"></rect> <rect width="18.0301" height="18.0301" transform="matrix(1 0 0 -1 1014.53 61.7441)" fill="#8BC400" stroke="#8BC400" stroke-width="3"></rect> <rect width="18.0301" height="18.0301" transform="matrix(1 0 0 -1 958 102.164)" fill="#8BC400" stroke="#8BC400" stroke-width="3"></rect> <rect width="18.0301" height="18.0301" transform="matrix(1 0 0 -1 494.57 41.3711)" fill="#8BC400" stroke="#8BC400" stroke-width="3"></rect> <rect width="18.0301" height="18.0301" transform="matrix(1 0 0 -1 957.609 61.1895)" fill="#8BC400" stroke="#8BC400" stroke-width="3"></rect> <rect width="18.0301" height="18.0301" transform="matrix(1 0 0 -1 775.305 21.0312)" fill="#8BC400" stroke="#8BC400" stroke-width="3"></rect> <rect width="18.0301" height="18.0301" transform="matrix(1 0 0 -1 735.242 21.0312)" fill="#8BC400" stroke="#8BC400" stroke-width="3"></rect> <rect width="18.0301" height="18.0301" transform="matrix(1 0 0 -1 214.367 21.0312)" fill="#8BC400" stroke="#8BC400" stroke-width="3"></rect> <rect width="18.0301" height="18.0301" transform="matrix(1 0 0 -1 274.469 82.1328)" fill="#8BC400" stroke="#8BC400" stroke-width="3"></rect> <rect width="18.0301" height="18.0301" transform="matrix(1 0 0 -1 614.852 79.2051)" fill="#8BC400" stroke="#8BC400" stroke-width="3"></rect> <rect width="18.0301" height="18.0301" transform="matrix(1 0 0 -1 1075.8 82.1328)" fill="#8BC400" stroke="#8BC400" stroke-width="3"></rect> <rect width="18.0301" height="18.0301" transform="matrix(1 0 0 -1 294.5 62.0996)" fill="#8BC400" stroke="#8BC400" stroke-width="3"></rect> <rect width="18.0301" height="18.0301" transform="matrix(1 0 0 -1 1095.84 62.0996)" fill="#8BC400" stroke="#8BC400" stroke-width="3"></rect> <rect width="18.0301" height="18.0301" transform="matrix(1 0 0 -1 -6 21.0312)" fill="#8BC400" stroke="#8BC400" stroke-width="3"></rect> <rect width="18.0301" height="18.0301" transform="matrix(1 0 0 -1 514.938 20.998)" fill="#8BC400" stroke="#8BC400" stroke-width="3"></rect> <rect width="18.0301" height="18.0301" transform="matrix(1 0 0 -1 434.734 21.0312)" fill="#8BC400" stroke="#8BC400" stroke-width="3"></rect> <rect width="18.0301" height="18.0301" transform="matrix(1 0 0 -1 414.703 42.0664)" fill="#8BC400" stroke="#8BC400" stroke-width="3"></rect> <rect width="18.0301" height="18.0301" transform="matrix(1 0 0 -1 414.703 62.0996)" fill="#8BC400" stroke="#8BC400" stroke-width="3"></rect> <rect width="18.0301" height="18.0301" transform="matrix(1 0 0 -1 454.797 62.7129)" fill="#8BC400" stroke="#8BC400" stroke-width="3"></rect> <rect width="18.0301" height="18.0301" transform="matrix(1 0 0 -1 494.57 61.7441)" fill="#8BC400" stroke="#8BC400" stroke-width="3"></rect> <rect width="18.0301" height="18.0301" transform="matrix(1 0 0 -1 374.633 81.502)" fill="#8BC400" stroke="#8BC400" stroke-width="3"></rect> <rect width="18.0301" height="18.0301" transform="matrix(1 0 0 -1 675.133 21.0312)" fill="#8BC400" stroke="#8BC400" stroke-width="3"></rect> <rect width="18.0301" height="18.0301" transform="matrix(1 0 0 -1 655.102 39.0605)" fill="#8BC400" stroke="#8BC400" stroke-width="3"></rect> <rect width="18.0301" height="18.0301" transform="matrix(1 0 0 -1 655.102 59.0957)" fill="#8BC400" stroke="#8BC400" stroke-width="3"></rect> <rect width="18.0301" height="18.0301" transform="matrix(1 0 0 -1 454.766 21.0312)" fill="#8BC400" stroke="#8BC400" stroke-width="3"></rect> <rect width="18.0301" height="18.0301" transform="matrix(1 0 0 -1 414.703 82.1328)" fill="#8BC400" stroke="#8BC400" stroke-width="3"></rect> <rect width="18.0301" height="18.0301" transform="matrix(1 0 0 -1 334.57 21.0625)" fill="#8BC400" stroke="#8BC400" stroke-width="3"></rect> <rect width="18.0301" height="18.0301" transform="matrix(1 0 0 -1 374.633 21.0312)" fill="#8BC400" stroke="#8BC400" stroke-width="3"></rect> <rect width="18.0301" height="18.0301" transform="matrix(1 0 0 -1 354.602 61.4688)" fill="#8BC400" stroke="#8BC400" stroke-width="3"></rect> <rect width="18.0301" height="18.0301" transform="matrix(1 0 0 -1 354.602 81.502)" fill="#8BC400" stroke="#8BC400" stroke-width="3"></rect> <rect width="18.0301" height="18.0301" transform="matrix(1 0 0 -1 474.188 82.1152)" fill="#8BC400" stroke="#8BC400" stroke-width="3"></rect> <rect width="18.0301" height="18.0301" transform="matrix(1 0 0 -1 274.469 62.0996)" fill="#8BC400" stroke="#8BC400" stroke-width="3"></rect> <rect width="18.0301" height="18.0301" transform="matrix(1 0 0 -1 294.5 42.0664)" fill="#8BC400" stroke="#8BC400" stroke-width="3"></rect> <rect width="18.0301" height="18.0301" transform="matrix(1 0 0 -1 634.062 79.127)" fill="#8BC400" stroke="#8BC400" stroke-width="3"></rect> <rect width="18.0301" height="18.0301" transform="matrix(1 0 0 -1 1095.84 42.0664)" fill="#8BC400" stroke="#8BC400" stroke-width="3"></rect> <rect width="18.0301" height="18.0301" transform="matrix(1 0 0 -1 595 21.0312)" fill="#8BC400" stroke="#8BC400" stroke-width="3"></rect> <rect width="18.0301" height="18.0301" transform="matrix(1 0 0 -1 514.938 82.1152)" fill="#8BC400" stroke="#8BC400" stroke-width="3"></rect> <rect width="18.0301" height="18.0301" transform="matrix(1 0 0 -1 394.648 41.3711)" fill="#8BC400" stroke="#8BC400" stroke-width="3"></rect> <rect width="18.0301" height="18.0301" transform="matrix(1 0 0 -1 775.305 41.0645)" fill="#8BC400" stroke="#8BC400" stroke-width="3"></rect> <rect width="18.0301" height="18.0301" transform="matrix(1 0 0 -1 314.531 102.166)" fill="#8BC400" stroke="#8BC400" stroke-width="3"></rect> <rect width="18.0301" height="18.0301" transform="matrix(1 0 0 -1 213 61.1562)" fill="#8BC400" stroke="#8BC400" stroke-width="3"></rect> <rect width="18.0301" height="18.0301" transform="matrix(1 0 0 -1 155.273 38.0605)" fill="#8BC400" stroke="#8BC400" stroke-width="3"></rect> <rect width="18.0301" height="18.0301" transform="matrix(1 0 0 -1 274.359 21)" fill="#8BC400" stroke="#8BC400" stroke-width="3"></rect> <rect width="18.0301" height="18.0301" transform="matrix(1 0 0 -1 14.0312 41.0645)" fill="#8BC400" stroke="#8BC400" stroke-width="3"></rect> <rect width="18.0301" height="18.0301" transform="matrix(1 0 0 -1 34.9688 81.1621)" fill="#8BC400" stroke="#8BC400" stroke-width="3"></rect> <rect width="18.0301" height="18.0301" transform="matrix(1 0 0 -1 233.609 60.7441)" fill="#8BC400" stroke="#8BC400" stroke-width="3"></rect> <rect width="18.0301" height="18.0301" transform="matrix(1 0 0 -1 192.336 100.162)" fill="#8BC400" stroke="#8BC400" stroke-width="3"></rect> <rect width="18.0301" height="18.0301" transform="matrix(1 0 0 -1 135.234 81.0684)" fill="#8BC400" stroke="#8BC400" stroke-width="3"></rect> <rect width="18.0301" height="18.0301" transform="matrix(1 0 0 -1 94.8906 82.1152)" fill="#8BC400" stroke="#8BC400" stroke-width="3"></rect> <rect width="18.0301" height="18.0301" transform="matrix(1 0 0 -1 55.0391 61.0996)" fill="#8BC400" stroke="#8BC400" stroke-width="3"></rect> <rect width="18.0301" height="18.0301" transform="matrix(1 0 0 -1 114.203 40.0625)" fill="#8BC400" stroke="#8BC400" stroke-width="3"></rect> <rect width="18.0301" height="18.0301" transform="matrix(1 0 0 -1 55.0391 41.0645)" fill="#8BC400" stroke="#8BC400" stroke-width="3"></rect> <rect width="18.0301" height="18.0301" transform="matrix(1 0 0 -1 95.8594 40.4004)" fill="#8BC400" stroke="#8BC400" stroke-width="3"></rect> <rect width="18.0301" height="18.0301" transform="matrix(1 0 0 -1 114.203 20.0293)" fill="#8BC400" stroke="#8BC400" stroke-width="3"></rect> <rect width="18.0301" height="18.0301" transform="matrix(1 0 0 -1 155.273 101.162)" fill="#8BC400" stroke="#8BC400" stroke-width="3"></rect> <rect width="18.0301" height="18.0301" transform="matrix(1 0 0 -1 -6 82.1152)" fill="#8BC400" stroke="#8BC400" stroke-width="3"></rect> <rect width="18.0301" height="18.0301" transform="matrix(1 0 0 -1 13.4062 103.457)" fill="#8BC400" stroke="#8BC400" stroke-width="3"></rect> <rect width="18.0301" height="18.0301" transform="matrix(1 0 0 -1 635.234 20.998)" fill="#8BC400" stroke="#8BC400" stroke-width="3"></rect> <rect width="18.0301" height="18.0301" transform="matrix(1 0 0 -1 1054.8 61.1309)" fill="#8BC400" stroke="#8BC400" stroke-width="3"></rect> <rect width="18.0301" height="18.0301" transform="matrix(1 0 0 -1 55.1172 81.1465)" fill="#8BC400" stroke="#8BC400" stroke-width="3"></rect> <rect width="18.0301" height="18.0301" transform="matrix(1 0 0 -1 135.234 61.0352)" fill="#8BC400" stroke="#8BC400" stroke-width="3"></rect> <rect width="18.0301" height="18.0301" transform="matrix(1 0 0 -1 155.273 58.123)" fill="#8BC400" stroke="#8BC400" stroke-width="3"></rect> <rect width="18.0301" height="18.0301" transform="matrix(1 0 0 -1 1055.77 21.0312)" fill="#8BC400" stroke="#8BC400" stroke-width="3"></rect> <rect width="18.0301" height="18.0301" transform="matrix(1 0 0 -1 194.805 21)" fill="#8BC400" stroke="#8BC400" stroke-width="3"></rect> <rect width="18.0301" height="18.0301" transform="matrix(1 0 0 -1 253.984 82.1152)" fill="#8BC400" stroke="#8BC400" stroke-width="3"></rect> <rect width="18.0301" height="18.0301" transform="matrix(1 0 0 -1 213.242 81.1445)" fill="#8BC400" stroke="#8BC400" stroke-width="3"></rect> <rect width="18.0301" height="18.0301" transform="matrix(1 0 0 -1 194.805 41.3711)" fill="#8BC400" stroke="#8BC400" stroke-width="3"></rect> <rect width="18.0301" height="18.0301" transform="matrix(1 0 0 -1 775.305 61.0977)" fill="#8BC400" stroke="#8BC400" stroke-width="3"></rect> <rect width="18.0301" height="18.0301" transform="matrix(1 0 0 -1 334.57 41.0957)" fill="#8BC400" stroke="#8BC400" stroke-width="3"></rect> <rect width="18.0301" height="18.0301" transform="matrix(1 0 0 -1 835.398 101.197)" fill="#8BC400" stroke="#8BC400" stroke-width="3"></rect> <rect width="18.0301" height="18.0301" transform="matrix(1 0 0 -1 895.508 41.8145)" fill="#8BC400" stroke="#8BC400" stroke-width="3"></rect> <rect width="18.0301" height="18.0301" transform="matrix(1 0 0 -1 875.469 81.1309)" fill="#8BC400" stroke="#8BC400" stroke-width="3"></rect> <rect width="18.0301" height="18.0301" transform="matrix(1 0 0 -1 957.609 41.1562)" fill="#8BC400" stroke="#8BC400" stroke-width="3"></rect> <rect width="18.0301" height="18.0301" transform="matrix(1 0 0 -1 1014.7 41.2227)" fill="#8BC400" stroke="#8BC400" stroke-width="3"></rect> <rect width="18.0301" height="18.0301" transform="matrix(1 0 0 -1 1075.8 21.0312)" fill="#8BC400" stroke="#8BC400" stroke-width="3"></rect> <rect width="18.0301" height="18.0301" transform="matrix(1 0 0 -1 1115.87 42.0664)" fill="#8BC400" stroke="#8BC400" stroke-width="3"></rect> <rect width="18.0301" height="18.0301" transform="matrix(1 0 0 -1 615.039 21.0312)" fill="#8BC400" stroke="#8BC400" stroke-width="3"></rect> <rect width="18.0301" height="18.0301" transform="matrix(1 0 0 -1 1116.39 102.486)" fill="#8BC400" stroke="#8BC400" stroke-width="3"></rect> <rect width="18.0301" height="18.0301" transform="matrix(1 0 0 -1 1135.9 82.1328)" fill="#8BC400" stroke="#8BC400" stroke-width="3"></rect> <rect width="18.0301" height="18.0301" transform="matrix(1 0 0 -1 1156.94 102.166)" fill="#8BC400" stroke="#8BC400" stroke-width="3"></rect> <rect width="18.0301" height="18.0301" transform="matrix(1 0 0 -1 1034.91 20.998)" fill="#8BC400" stroke="#8BC400" stroke-width="3"></rect> <rect width="18.0301" height="18.0301" transform="matrix(1 0 0 -1 1135.9 62.0996)" fill="#8BC400" stroke="#8BC400" stroke-width="3"></rect> <rect width="18.0301" height="18.0301" transform="matrix(1 0 0 -1 936.539 21.0312)" fill="#8BC400" stroke="#8BC400" stroke-width="3"></rect> <rect width="18.0301" height="18.0301" transform="matrix(1 0 0 -1 994 62.166)" fill="#8BC400" stroke="#8BC400" stroke-width="3"></rect> <rect width="18.0301" height="18.0301" transform="matrix(1 0 0 -1 554.938 21.0312)" fill="#8BC400" stroke="#8BC400" stroke-width="3"></rect> <rect width="18.0301" height="18.0301" transform="matrix(1 0 0 -1 315.102 20.998)" fill="#8BC400" stroke="#8BC400" stroke-width="3"></rect> <rect width="18.0301" height="18.0301" transform="matrix(1 0 0 -1 1155.94 21.0312)" fill="#8BC400" stroke="#8BC400" stroke-width="3"></rect> <rect width="18.0301" height="18.0301" transform="matrix(1 0 0 -1 815.367 21.0312)" fill="#8BC400" stroke="#8BC400" stroke-width="3"></rect> <rect width="18.0301" height="18.0301" transform="matrix(1 0 0 -1 234.398 21.0312)" fill="#8BC400" stroke="#8BC400" stroke-width="3"></rect> <rect width="18.0301" height="18.0301" transform="matrix(1 0 0 -1 314.531 62.0996)" fill="#8BC400" stroke="#8BC400" stroke-width="3"></rect> <rect width="18.0301" height="18.0301" transform="matrix(1 0 0 -1 654.094 99.1621)" fill="#8BC400" stroke="#8BC400" stroke-width="3"></rect> <rect width="18.0301" height="18.0301" transform="matrix(1 0 0 -1 14.0312 21.0312)" fill="#8BC400" stroke="#8BC400" stroke-width="3"></rect> <rect width="18.0301" height="18.0301" transform="matrix(1 0 0 -1 1155.94 42.0664)" fill="#8BC400" stroke="#8BC400" stroke-width="3"></rect> <rect width="18.0301" height="18.0301" transform="matrix(1 0 0 -1 815.367 41.0645)" fill="#8BC400" stroke="#8BC400" stroke-width="3"></rect> <rect width="18.0301" height="18.0301" transform="matrix(1 0 0 -1 1135.9 42.0664)" fill="#8BC400" stroke="#8BC400" stroke-width="3"></rect> <rect width="18.0301" height="18.0301" transform="matrix(1 0 0 -1 956.57 21.0312)" fill="#8BC400" stroke="#8BC400" stroke-width="3"></rect> <rect width="18.0301" height="18.0301" transform="matrix(1 0 0 -1 1175.97 21.0312)" fill="#8BC400" stroke="#8BC400" stroke-width="3"></rect> <rect width="18.0301" height="18.0301" transform="matrix(1 0 0 -1 1175.97 82.1152)" fill="#8BC400" stroke="#8BC400" stroke-width="3"></rect> <rect width="18.0301" height="18.0301" transform="matrix(1 0 0 -1 835.398 21.0312)" fill="#8BC400" stroke="#8BC400" stroke-width="3"></rect> <rect width="18.0301" height="18.0301" transform="matrix(1 0 0 -1 716.203 91.1465)" fill="#8BC400" stroke="#8BC400" stroke-width="3"></rect> <rect width="18.0301" height="18.0301" transform="matrix(1 0 0 -1 254.438 21.0312)" fill="#8BC400" stroke="#8BC400" stroke-width="3"></rect> <rect width="18.0301" height="18.0301" transform="matrix(1 0 0 -1 34.0625 21.0312)" fill="#8BC400" stroke="#8BC400" stroke-width="3"></rect> <rect width="18.0301" height="18.0301" transform="matrix(1 0 0 -1 1015 102.164)" fill="#8BC400" stroke="#8BC400" stroke-width="3"></rect> <rect width="18.0301" height="18.0301" transform="matrix(1 0 0 -1 795.336 61.0977)" fill="#8BC400" stroke="#8BC400" stroke-width="3"></rect> <rect width="18.0301" height="18.0301" transform="matrix(1 0 0 -1 915.539 41.8145)" fill="#8BC400" stroke="#8BC400" stroke-width="3"></rect> </svg> 