<?xml version="1.0" encoding="UTF-8"?> <svg xmlns="http://www.w3.org/2000/svg" width="120" height="59" viewBox="0 0 120 59" fill="none"> <path d="M6.52127 3.53987L7.83313 3.4531V2.13837V1.47658C8.54707 1.46836 9.56127 1.46072 10.8467 1.45373C13.5716 1.43891 17.5047 1.42707 22.3542 1.41873C32.0527 1.40204 45.4112 1.39933 60.0883 1.41467L112.145 1.46892L112.192 2.22696L112.269 3.45938L113.501 3.54096L114.237 3.58967L114.31 6.39332L114.417 10.4768L114.451 11.7567L115.729 11.8414L116.465 11.8902L116.501 13.8436L116.56 17.0874L116.583 18.3781L117.872 18.4633L118.595 18.5111V22.911V27.311L117.872 27.3588L116.575 27.4446L116.56 28.7437L116.534 30.951C116.521 32.0157 116.501 33.2634 116.486 33.9305L115.729 33.9807L114.434 34.0663L114.417 35.3634L114.359 39.7108L114.318 42.7613L113.586 42.8098L112.354 42.8914L112.277 44.1238L112.227 44.9255L109.138 45.0146L107.774 45.0539V46.4185V57.5954H106.382V56.9263V55.543L104.999 55.5219L102.012 55.4763V53.0404V51.726L100.7 51.6389L99.9188 51.587L99.8661 50.7453L99.789 49.5134L98.5574 49.4316L97.7759 49.3797L97.7232 48.538L97.6461 47.3062L96.4146 47.2243L95.6331 47.1724L95.5804 46.3307L95.498 45.0156L94.1803 45.014L50.3171 44.9583L7.77192 44.9042L7.72326 44.1238L7.6464 42.8914L6.41423 42.8098L5.68182 42.7613L5.64107 39.7108L5.583 35.3634L5.56568 34.0664L4.27147 33.9807L3.53492 33.9318L3.49918 31.9785L3.49918 31.9784L3.44004 28.7347L3.4165 27.444L2.12841 27.3588L1.40456 27.311V22.911V18.5111L2.12841 18.4633L3.4165 18.3781L3.44004 17.0874L3.49918 13.8436L3.49918 13.8436L3.53492 11.8902L4.27147 11.8414L5.54906 11.7567L5.58264 10.4768L5.68979 6.39332L5.76334 3.59L6.52127 3.53987Z" stroke="#8BC400" stroke-width="2.80911"></path> <path d="M28.875 29.375V27.75H24V26.125H28.875V24.5H25.625V22.875H24V21.25H25.625V19.625H28.875V18H30.5V19.625H33.75V21.25H30.5V22.875H33.75V24.5H35.375V26.125H33.75V27.75H30.5V29.375H28.875ZM27.25 22.875H28.875V21.25H27.25V22.875ZM30.5 26.125H32.125V24.5H30.5V26.125ZM40.25 19.625H38.625V18H41.875V21.25H40.25V19.625ZM48.375 18V19.625H46.75V18H48.375ZM40.25 22.875H37V19.625H38.625V21.25H40.25V22.875ZM45.125 19.625H46.75V21.25H45.125V19.625ZM43.5 21.25H45.125V22.875H43.5V21.25ZM41.875 22.875H43.5V24.5H41.875V22.875ZM40.25 24.5H41.875V26.125H40.25V24.5ZM45.125 24.5H48.375V27.75H46.75V26.125H45.125V24.5ZM38.625 26.125H40.25V27.75H38.625V26.125ZM45.125 27.75H46.75V29.375H43.5V26.125H45.125V27.75ZM37 27.75H38.625V29.375H37V27.75ZM51.625 27.75V26.125H53.25V24.5H50V22.875H53.25V21.25H51.625V19.625H54.875V21.25H56.5V19.625H59.75V21.25H58.125V22.875H61.375V24.5H58.125V26.125H59.75V27.75H56.5V26.125H54.875V27.75H51.625ZM64.625 29.375V27.75H63V26.125H64.625V21.25H63V19.625H64.625V18H67.875V19.625H69.5V18H72.75V19.625H74.375V21.25H72.75V26.125H74.375V27.75H72.75V29.375H69.5V27.75H67.875V29.375H64.625ZM67.875 26.125H69.5V21.25H67.875V26.125ZM85.75 18V19.625H77.625V18H85.75ZM76 19.625H77.625V27.75H76V19.625ZM87.375 19.625V26.125H79.25V21.25H84.125V24.5H85.75V19.625H87.375ZM82.5 22.875H80.875V24.5H82.5V22.875ZM77.625 29.375V27.75H85.75V29.375H77.625ZM92.25 26.125V18H97.125V22.875H95.5V26.125H92.25ZM92.25 29.375V27.75H95.5V29.375H92.25Z" fill="#8BC400"></path> </svg> 