<?xml version="1.0" encoding="UTF-8"?> <svg xmlns="http://www.w3.org/2000/svg" width="67" height="44" viewBox="0 0 67 44" fill="none"> <path d="M66.9115 34.9325C66.9115 43.6418 43.9071 45.6292 27.6861 41.2388C4.3868 34.9325 0.257812 23.8217 0.257812 11.5089C4.3868 -1.70424 20.6078 -0.202876 29.7506 1.89909C54.9155 7.68464 66.9115 19.0168 66.9115 34.9325Z" fill="#8BC400"></path> <path d="M26.0448 34.7859V33.7239L27.0451 33.5183V25.7895L25.9557 25.584V24.522H28.5936L28.7032 25.399C28.9316 25.0747 29.2103 24.8257 29.5391 24.6521C29.868 24.474 30.2563 24.3849 30.7039 24.3849C31.3069 24.3849 31.8231 24.5494 32.2524 24.8783C32.6818 25.2071 33.0084 25.6662 33.2322 26.2555C33.4606 26.8447 33.5748 27.5344 33.5748 28.3247V28.4686C33.5748 29.1903 33.4606 29.8229 33.2322 30.3665C33.0038 30.9055 32.675 31.3257 32.2456 31.6272C31.8208 31.9287 31.3069 32.0794 30.7039 32.0794C30.2791 32.0794 29.9068 32.0063 29.5871 31.8602C29.2674 31.7094 28.9933 31.4902 28.7649 31.2024V33.5183L29.8201 33.7239V34.7859H26.0448ZM30.1832 30.7502C30.7496 30.7502 31.1676 30.5424 31.4371 30.1267C31.7111 29.7064 31.8482 29.1537 31.8482 28.4686V28.3247C31.8482 27.8131 31.7865 27.3654 31.6632 26.9817C31.5444 26.5935 31.3594 26.292 31.1082 26.0773C30.8615 25.8581 30.5486 25.7484 30.1695 25.7484C29.8498 25.7484 29.5711 25.8215 29.3336 25.9677C29.1006 26.1093 28.9111 26.3103 28.7649 26.5706V29.9691C28.9111 30.2203 29.1006 30.4145 29.3336 30.5515C29.5665 30.684 29.8498 30.7502 30.1832 30.7502ZM38.3231 34.7859V33.7376L39.4742 33.5183V31.2435C39.2458 31.5222 38.9763 31.7323 38.6657 31.8739C38.3596 32.0109 38.0056 32.0794 37.6036 32.0794C37.0007 32.0794 36.4845 31.9287 36.0551 31.6272C35.6303 31.3257 35.3037 30.9055 35.0753 30.3665C34.8515 29.8229 34.7396 29.1903 34.7396 28.4686V28.3247C34.7396 27.5344 34.8515 26.8447 35.0753 26.2555C35.3037 25.6662 35.6326 25.2071 36.062 24.8783C36.4914 24.5494 37.0053 24.3849 37.6036 24.3849C38.0376 24.3849 38.4167 24.4717 38.741 24.6453C39.0653 24.8143 39.3417 25.0587 39.5701 25.3784L39.7071 24.522H41.2008V33.5183L42.16 33.717V34.7859H38.3231ZM38.0833 30.7502C38.3984 30.7502 38.6702 30.684 38.8986 30.5515C39.1316 30.419 39.3234 30.2272 39.4742 29.9759V26.5021C39.3234 26.26 39.1316 26.0705 38.8986 25.9334C38.6702 25.7918 38.403 25.721 38.097 25.721C37.7178 25.721 37.4072 25.8306 37.1651 26.0499C36.9276 26.2692 36.7517 26.5752 36.6375 26.968C36.5233 27.3563 36.4662 27.8085 36.4662 28.3247V28.4686C36.4662 29.1583 36.5941 29.711 36.8499 30.1267C37.1057 30.5424 37.5168 30.7502 38.0833 30.7502ZM42.6671 31.9355V30.8804L43.6948 30.6748V25.7895L42.6123 25.584V24.522H45.2844L45.3735 25.4538L45.3872 25.6045C45.5836 25.2117 45.8234 24.9102 46.1066 24.7001C46.3944 24.49 46.7302 24.3849 47.1139 24.3849C47.2417 24.3849 47.3765 24.3963 47.5181 24.4192C47.6643 24.442 47.783 24.4672 47.8744 24.4946L47.6757 26.091L46.7096 26.0362C46.3944 26.0179 46.1341 26.0796 45.9285 26.2212C45.7275 26.3628 45.5585 26.5592 45.4215 26.8104V30.6748L46.4492 30.8804V31.9355H42.6671ZM51.684 32.0794C51.1541 32.0794 50.6585 32.0292 50.1971 31.9287C49.7404 31.8236 49.2813 31.6706 48.8199 31.4696L48.7994 29.51H50.0395L50.2999 30.5789C50.4963 30.6657 50.6973 30.7342 50.9029 30.7845C51.113 30.8301 51.3459 30.853 51.6017 30.853C52.0951 30.853 52.4422 30.7662 52.6432 30.5926C52.8488 30.419 52.9515 30.2043 52.9515 29.9485C52.9515 29.7019 52.8442 29.4918 52.6295 29.3182C52.4194 29.14 52.0151 28.987 51.4167 28.8591C50.5306 28.6673 49.8774 28.3886 49.4571 28.0232C49.0415 27.6532 48.8336 27.1736 48.8336 26.5843C48.8336 26.1778 48.941 25.8101 49.1557 25.4812C49.3749 25.1523 49.6947 24.8897 50.1149 24.6933C50.5397 24.4923 51.0605 24.3918 51.6771 24.3918C52.239 24.3918 52.7368 24.4512 53.1708 24.5699C53.6093 24.6841 53.9816 24.8371 54.2876 25.029L54.3287 26.9132H53.1023L52.8899 25.9334C52.7483 25.8329 52.5838 25.7553 52.3965 25.7005C52.2093 25.6456 51.9946 25.6182 51.7525 25.6182C51.3733 25.6182 51.0742 25.7027 50.8549 25.8718C50.6356 26.0362 50.526 26.244 50.526 26.4953C50.526 26.6414 50.5603 26.7739 50.6288 26.8927C50.7019 27.0114 50.8389 27.1211 51.0399 27.2215C51.2454 27.3175 51.5446 27.4111 51.9375 27.5025C52.9013 27.7263 53.591 28.0186 54.0067 28.3795C54.4224 28.7404 54.6302 29.2177 54.6302 29.8115C54.6302 30.4738 54.3881 31.0174 53.9039 31.4422C53.4197 31.867 52.6797 32.0794 51.684 32.0794Z" fill="#27360D"></path> <path d="M11.5479 24.9023L11.6917 23.3813C11.8493 21.915 12.1234 20.5309 12.514 19.2291C12.9045 17.9204 13.4184 16.6871 14.0556 15.5292C14.6928 14.3712 15.4568 13.2784 16.3475 12.2506H11.0751L10.962 13.7306H8.65985V9.93814H19.2355V12.2506C18.4339 13.1893 17.7692 14.0869 17.2417 14.9433C16.7141 15.793 16.2858 16.6494 15.957 17.5127C15.6281 18.3692 15.3677 19.2736 15.1759 20.226C14.984 21.1784 14.823 22.2302 14.6928 23.3813L14.5489 24.9023H11.5479Z" fill="#27360D"></path> </svg> 