<?xml version="1.0" encoding="UTF-8"?> <svg xmlns="http://www.w3.org/2000/svg" width="67" height="43" viewBox="0 0 67 43" fill="none"> <path d="M0.346282 34.3396C0.346282 42.8711 23.3507 44.8179 39.5717 40.5171C62.871 34.3396 67 23.4555 67 11.394C62.871 -1.54952 46.65 -0.0787978 37.5072 1.98027C12.3423 7.64775 0.346282 18.7487 0.346282 34.3396Z" fill="#8BC400"></path> <path d="M15.0936 33.0658C14.4953 33.0658 13.9837 32.915 13.5589 32.6135C13.1341 32.3121 12.8075 31.8918 12.5791 31.3528C12.3552 30.8093 12.2433 30.1766 12.2433 29.4549V29.311C12.2433 28.5208 12.3552 27.831 12.5791 27.2418C12.8075 26.6525 13.1341 26.1935 13.5589 25.8646C13.9882 25.5357 14.4975 25.3713 15.0868 25.3713C15.5116 25.3713 15.8816 25.4535 16.1968 25.6179C16.5165 25.7778 16.7906 26.0085 17.019 26.3099V23.5007L15.9296 23.2952V22.2332H17.019H18.7456V31.6612L19.7734 31.8667V32.9219H17.2519L17.1149 32.0243C16.882 32.3669 16.5965 32.6273 16.2584 32.8054C15.925 32.979 15.5367 33.0658 15.0936 33.0658ZM15.5801 31.7023C15.909 31.7023 16.1922 31.6315 16.4297 31.4899C16.6673 31.3437 16.8637 31.1336 17.019 30.8595V27.5912C16.8682 27.3263 16.6718 27.1185 16.4297 26.9677C16.1922 26.8124 15.9136 26.7348 15.5938 26.7348C15.2193 26.7348 14.9109 26.8444 14.6688 27.0636C14.4313 27.2783 14.2555 27.5798 14.1413 27.9681C14.0271 28.3518 13.97 28.7994 13.97 29.311V29.4549C13.97 30.1401 14.0956 30.6859 14.3468 31.0925C14.6026 31.499 15.0137 31.7023 15.5801 31.7023ZM23.9804 33.0658C23.2815 33.0658 22.6717 32.9105 22.1509 32.5998C21.6348 32.2847 21.2328 31.8507 20.945 31.298C20.6618 30.7453 20.5202 30.1127 20.5202 29.4001V29.1123C20.5202 28.3906 20.6595 27.7488 20.9382 27.187C21.2214 26.6206 21.6097 26.1775 22.103 25.8577C22.5963 25.5334 23.1581 25.3713 23.7885 25.3713C24.46 25.3713 25.0218 25.506 25.474 25.7755C25.9308 26.045 26.2757 26.4287 26.5086 26.9266C26.7416 27.4199 26.8581 28.0137 26.8581 28.7081V29.6947H22.3085L22.2948 29.729C22.3131 30.1172 22.393 30.4621 22.5346 30.7636C22.6808 31.0651 22.8864 31.3026 23.1513 31.4762C23.4208 31.6497 23.7474 31.7365 24.1311 31.7365C24.5331 31.7365 24.8985 31.6817 25.2274 31.5721C25.5563 31.4625 25.86 31.3071 26.1387 31.1062L26.6799 32.1887C26.3876 32.4354 26.0153 32.6432 25.5631 32.8122C25.1109 32.9813 24.5833 33.0658 23.9804 33.0658ZM22.3359 28.4819H25.2068V28.3038C25.2068 27.9795 25.1566 27.6963 25.0561 27.4542C24.9602 27.2075 24.8071 27.0157 24.597 26.8786C24.3915 26.7416 24.1288 26.6731 23.8091 26.6731C23.5304 26.6731 23.286 26.7507 23.0759 26.906C22.8658 27.0614 22.6968 27.2738 22.5689 27.5433C22.4456 27.8082 22.3611 28.1097 22.3154 28.4477L22.3359 28.4819ZM27.8858 32.9219V31.8667L28.9205 31.6612V26.7416H27.7899V25.5083H28.9205V24.6381C28.9205 23.825 29.1443 23.197 29.5919 22.7539C30.0441 22.3108 30.6745 22.0893 31.483 22.0893C31.6703 22.0893 31.8713 22.1053 32.086 22.1372C32.3007 22.1646 32.4971 22.2012 32.6752 22.2469L32.5039 23.5418C32.408 23.519 32.2892 23.5007 32.1476 23.487C32.006 23.4688 31.8667 23.4596 31.7297 23.4596C31.3642 23.4596 31.0902 23.5601 30.9075 23.7611C30.7293 23.9621 30.6402 24.2544 30.6402 24.6381V25.5083H32.2984V26.7416H30.6402V31.6612L31.9352 31.8667V32.9219H27.8858Z" fill="#27360D"></path> <path d="M54.2797 23.4756C53.3273 23.4756 52.4606 23.3077 51.6795 22.972C50.8984 22.6363 50.2783 22.1498 49.8193 21.5126C49.367 20.8685 49.1512 20.0908 49.1718 19.1796L49.1923 19.1179H52.1009C52.1009 19.5153 52.19 19.8682 52.3681 20.1765C52.5462 20.4848 52.7963 20.728 53.1184 20.9062C53.4472 21.0843 53.8344 21.1734 54.2797 21.1734C54.9718 21.1734 55.5165 20.9781 55.9139 20.5876C56.3181 20.197 56.5203 19.6592 56.5203 18.974C56.5203 18.2751 56.3216 17.7304 55.9242 17.3399C55.5267 16.9493 54.9272 16.754 54.1256 16.754H52.5017V14.5032H54.1872C54.6669 14.5032 55.0608 14.421 55.3692 14.2566C55.6775 14.0853 55.907 13.8455 56.0578 13.5371C56.2085 13.2288 56.2839 12.8657 56.2839 12.4477C56.2839 11.8174 56.1126 11.3172 55.77 10.9472C55.4274 10.5772 54.9306 10.3922 54.2797 10.3922C53.8892 10.3922 53.5432 10.471 53.2417 10.6286C52.9402 10.7793 52.7038 10.9952 52.5325 11.2761C52.3681 11.557 52.2859 11.8825 52.2859 12.2524H49.3773L49.3568 12.1908C49.3362 11.396 49.5315 10.6902 49.9426 10.0736C50.3537 9.45008 50.9327 8.96361 51.6795 8.61417C52.4332 8.25788 53.2931 8.07974 54.2592 8.07974C55.7734 8.07974 56.9896 8.44973 57.9077 9.18972C58.8259 9.92285 59.2849 10.9643 59.2849 12.3141C59.2849 13.013 59.0897 13.6433 58.6991 14.2052C58.3154 14.767 57.7399 15.2261 56.9725 15.5824C57.8015 15.877 58.4319 16.3292 58.8635 16.939C59.3021 17.5488 59.5213 18.258 59.5213 19.0665C59.5213 19.9778 59.2952 20.7623 58.843 21.4201C58.3908 22.0778 57.7673 22.5849 56.9725 22.9412C56.1845 23.2975 55.2869 23.4756 54.2797 23.4756Z" fill="#27360D"></path> </svg> 