<?xml version="1.0" encoding="UTF-8"?> <svg xmlns="http://www.w3.org/2000/svg" width="67" height="43" viewBox="0 0 67 43" fill="none"> <path d="M66.6537 34.4111C66.6537 43.1203 43.6493 45.1077 27.4283 40.7173C4.12899 34.4111 0 23.3002 0 10.9875C4.12899 -2.22572 20.35 -0.72436 29.4928 1.37761C54.6577 7.16315 66.6537 18.4953 66.6537 34.4111Z" fill="#8BC400"></path> <path d="M12.9493 24.3828V22.5842L15.4776 22.2759V12.1422H12.9185V10.4258L18.4684 9.41861V22.2759L20.9967 22.5842V24.3828H12.9493Z" fill="#27360D"></path> <path fill-rule="evenodd" clip-rule="evenodd" d="M36.9107 27.6232C36.9107 29.5044 35.3996 31.0328 33.525 31.0607H33.4206C31.5459 31.0328 30.0348 29.5044 30.0348 27.6232C30.0348 25.7244 31.5741 24.1852 33.4728 24.1852C35.3715 24.1852 36.9107 25.7244 36.9107 27.6232ZM28.0703 27.6232C28.0703 30.4403 30.2266 32.7538 32.9787 33.0033V33.0252H33.4073C33.4291 33.0255 33.4509 33.0256 33.4728 33.0256C33.4946 33.0256 33.5164 33.0255 33.5382 33.0252H33.9609L46.7304 33.0252H47.1574C47.1792 33.0255 47.201 33.0256 47.2228 33.0256C47.2446 33.0256 47.2664 33.0255 47.2881 33.0252H47.7127V33.0037C50.4668 32.7562 52.6252 30.4417 52.6252 27.6232C52.6252 24.6395 50.2065 22.2207 47.2228 22.2207C44.2391 22.2207 41.8203 24.6395 41.8203 27.6232C41.8203 28.929 42.2836 30.1267 43.0549 31.0607L37.6407 31.0607C38.4119 30.1267 38.8752 28.929 38.8752 27.6232C38.8752 24.6395 36.4565 22.2207 33.4728 22.2207C30.4891 22.2207 28.0703 24.6395 28.0703 27.6232ZM47.2749 31.0607H47.1706C45.296 31.0328 43.7848 29.5045 43.7848 27.6232C43.7848 25.7244 45.3241 24.1852 47.2228 24.1852C49.1215 24.1852 50.6607 25.7244 50.6607 27.6232C50.6607 29.5045 49.1496 31.0328 47.2749 31.0607Z" fill="#27360D"></path> </svg> 