<?xml version="1.0" encoding="UTF-8"?> <svg xmlns="http://www.w3.org/2000/svg" width="116" height="21" viewBox="0 0 116 21" fill="none"> <rect x="100.938" y="6.7793" width="6.77922" height="7.53247" transform="rotate(-90 100.938 6.7793)" fill="#27360D"></rect> <rect x="108.469" y="13.5527" width="6.77922" height="7.53247" transform="rotate(-90 108.469 13.5527)" fill="#27360D"></rect> <rect x="85.875" y="20.334" width="6.77922" height="30.1299" transform="rotate(-90 85.875 20.334)" fill="#27360D"></rect> <rect x="57.25" y="20.334" width="6.77922" height="21.0909" transform="rotate(-90 57.25 20.334)" fill="#27360D"></rect> <rect x="28.625" y="20.334" width="6.77922" height="21.0909" transform="rotate(-90 28.625 20.334)" fill="#27360D"></rect> <rect y="20.334" width="6.77922" height="21.0909" transform="rotate(-90 0 20.334)" fill="#27360D"></rect> <rect x="64.7812" y="13.5527" width="6.77922" height="21.0909" transform="rotate(-90 64.7812 13.5527)" fill="#27360D"></rect> <rect x="36.1562" y="13.5527" width="6.77922" height="21.0909" transform="rotate(-90 36.1562 13.5527)" fill="#27360D"></rect> <rect x="7.53125" y="13.5527" width="6.77922" height="21.0909" transform="rotate(-90 7.53125 13.5527)" fill="#27360D"></rect> <rect x="93.4062" y="13.5527" width="6.77922" height="7.53247" transform="rotate(-90 93.4062 13.5527)" fill="#27360D"></rect> </svg> 