<?xml version="1.0" encoding="UTF-8"?> <svg xmlns="http://www.w3.org/2000/svg" width="68" height="44" viewBox="0 0 68 44" fill="none"> <path d="M67.4037 35.1728C67.4037 43.882 44.3993 45.8694 28.1783 41.479C4.87899 35.1728 0.75 24.0619 0.75 11.7492C4.87899 -1.46401 21.1 0.0373585 30.2428 2.13933C55.4077 7.92487 67.4037 19.2571 67.4037 35.1728Z" fill="#8BC400"></path> <path d="M36.0555 36.9239C35.69 36.9239 35.2835 36.8737 34.8359 36.7732C34.3928 36.6772 34.0022 36.5425 33.6642 36.3689L34.0205 35.1082C34.3128 35.2407 34.6349 35.348 34.9866 35.4302C35.3383 35.5124 35.6718 35.5535 35.987 35.5535C36.5534 35.5535 36.9668 35.396 37.2271 35.0808C37.4921 34.7702 37.6245 34.3294 37.6245 33.7584V33.176C37.3961 33.4683 37.1243 33.6922 36.8092 33.8475C36.494 33.9982 36.1331 34.0736 35.7266 34.0736C35.1236 34.0736 34.6029 33.9228 34.1644 33.6214C33.7304 33.3199 33.397 32.8974 33.164 32.3538C32.9356 31.8102 32.8215 31.1799 32.8215 30.4627V30.3188C32.8215 29.5286 32.9356 28.8388 33.164 28.2496C33.397 27.6603 33.7282 27.2013 34.1575 26.8724C34.5915 26.5435 35.1076 26.3791 35.706 26.3791C36.1582 26.3791 36.5511 26.4727 36.8845 26.66C37.218 26.8427 37.5012 27.1054 37.7341 27.4479L37.8643 26.5161H39.3512V33.7652C39.3512 34.4093 39.221 34.9666 38.9606 35.4371C38.7002 35.9121 38.3234 36.2776 37.8301 36.5333C37.3367 36.7937 36.7452 36.9239 36.0555 36.9239ZM36.1925 32.7101C36.526 32.7101 36.8092 32.6393 37.0421 32.4977C37.2796 32.3561 37.4738 32.1505 37.6245 31.881V28.5785C37.4738 28.3181 37.2796 28.1148 37.0421 27.9687C36.8046 27.8179 36.5237 27.7426 36.1994 27.7426C35.8202 27.7426 35.5073 27.8522 35.2607 28.0715C35.0186 28.2861 34.8381 28.5876 34.7194 28.9759C34.6052 29.3596 34.5481 29.8072 34.5481 30.3188V30.4627C34.5481 31.1479 34.6783 31.6937 34.9386 32.1003C35.2036 32.5068 35.6215 32.7101 36.1925 32.7101ZM39.1182 27.8179L38.3919 26.5161H40.2419V27.5781L39.1182 27.8179ZM40.7558 33.9297V32.8745L41.7835 32.669V24.5085L40.6941 24.303V23.241H43.5033V27.4753C43.7454 27.1282 44.0446 26.8587 44.4009 26.6668C44.7572 26.475 45.1592 26.3791 45.6068 26.3791C46.3696 26.3791 46.968 26.6234 47.402 27.1122C47.8405 27.5964 48.0597 28.3455 48.0597 29.3596V32.669L49.0875 32.8745V33.9297H45.367V32.8745L46.3399 32.669V29.3459C46.3399 28.7795 46.2257 28.3706 45.9973 28.1194C45.769 27.8682 45.4332 27.7426 44.9901 27.7426C44.675 27.7426 44.3895 27.8134 44.1337 27.955C43.8824 28.092 43.6723 28.2861 43.5033 28.5374V32.669L44.4763 32.8745V33.9297H40.7558ZM49.8001 33.9297V32.8745L50.8278 32.669V27.7837L49.7384 27.5781V26.5161H52.5545V32.669L53.5754 32.8745V33.9297H49.8001ZM50.7593 24.8374V23.241H52.5545V24.8374H50.7593Z" fill="#27360D"></path> <path d="M14.5722 26.0195V24.2209L16.1755 23.9126V22.4429H10.0706L9.92673 20.9732L16.1447 11.0553H19.1663V20.4491H20.8621V22.4429H19.1663V23.9126L20.7593 24.2209V26.0195H14.5722ZM12.7222 20.4491H16.1755V15.0533L16.1139 15.0328L15.8672 15.4644L12.7222 20.4491Z" fill="#27360D"></path> </svg> 