<?xml version="1.0" encoding="UTF-8"?> <svg xmlns="http://www.w3.org/2000/svg" width="68" height="44" viewBox="0 0 68 44" fill="none"> <path d="M0.445825 34.9325C0.445825 43.6418 23.7529 45.6292 40.1874 41.2388C63.7932 34.9325 67.9766 23.8217 67.9766 11.5089C63.7932 -1.70424 47.3588 -0.202876 38.0957 1.89909C12.5997 7.68464 0.445825 19.0168 0.445825 34.9325Z" fill="#8BC400"></path> <path d="M13.9502 31.9355L12.1277 25.721L11.2575 25.584V24.522H14.6217V25.584L13.7858 25.7347L14.6148 28.955L14.7861 29.6539H14.8272L15.0671 28.955L16.6224 24.522H17.8763L19.3768 28.9824L19.6303 29.7704H19.6714L19.9112 28.9824L20.8088 25.7347L19.9181 25.584V24.522H23.2138V25.584L22.3642 25.7279L20.4662 31.9355H18.952L17.5337 27.9341L17.2459 26.9612H17.2048L16.917 27.9341L15.4645 31.9355H13.9502ZM23.7002 31.9355V30.8804L24.5978 30.7433L26.7561 28.2082L24.6869 25.721L23.8578 25.584V24.522H27.2083V25.5566L26.5643 25.6388L27.825 27.2558L29.072 25.6388L28.3663 25.5566V24.522H31.6209V25.584L30.8261 25.721L28.8802 28.1534L31.0796 30.7433L31.9292 30.8804V31.9355H28.4005V30.9078L29.1474 30.8256L27.8044 29.1743L26.4958 30.8324L27.1946 30.9078V31.9355H23.7002ZM34.4917 34.9298C34.3501 34.9298 34.1857 34.9161 33.9984 34.8886C33.8157 34.8612 33.6558 34.827 33.5188 34.7859L33.7106 33.4909C33.7929 33.5046 33.8911 33.516 34.0053 33.5252C34.124 33.5343 34.2177 33.5389 34.2862 33.5389C34.574 33.5389 34.816 33.4475 35.0125 33.2648C35.2089 33.0866 35.3688 32.8377 35.4921 32.5179L35.7182 31.9218L33.1831 25.7073L32.3197 25.584V24.522H35.91V25.584L34.9988 25.721L36.2869 29.1743L36.513 29.8184H36.5541L38.0752 25.7142L37.1639 25.584V24.522H40.5692V25.584L39.7676 25.7005L36.8967 33.0524C36.7597 33.3995 36.5884 33.7147 36.3828 33.9979C36.1818 34.2857 35.926 34.5118 35.6154 34.6762C35.3094 34.8453 34.9348 34.9298 34.4917 34.9298ZM41.3024 31.9355V30.853L45.2353 25.769H42.9125L42.7138 27.0297H41.4325V24.522H47.325V25.6525L43.5018 30.6748H46.0506L46.2973 29.3524H47.5306V31.9355H41.3024Z" fill="#27360D"></path> <path d="M55.5944 25.1182C55.0737 25.1182 54.5358 25.0634 53.9808 24.9537C53.4327 24.851 52.9256 24.6968 52.4597 24.4912L52.7989 22.3227C53.2305 22.4803 53.6725 22.6036 54.1247 22.6927C54.5838 22.7749 55.0326 22.816 55.4711 22.816C56.3412 22.816 57.0264 22.5179 57.5266 21.9218C58.0268 21.3257 58.2837 20.3973 58.2974 19.1366L58.2769 18.9105C57.9411 19.3422 57.5369 19.671 57.0641 19.8971C56.5982 20.1164 56.0843 20.226 55.5225 20.226C54.6386 20.226 53.8609 20.0205 53.1894 19.6094C52.5248 19.1914 52.0075 18.5987 51.6375 17.8313C51.2744 17.064 51.0928 16.1424 51.0928 15.0667C51.0928 14.0595 51.3086 13.1516 51.7403 12.3431C52.1788 11.5346 52.7749 10.8974 53.5286 10.4315C54.2891 9.9587 55.1525 9.72231 56.1186 9.72231C57.1395 9.72231 58.037 9.9587 58.8113 10.4315C59.5855 10.9042 60.1885 11.5894 60.6201 12.487C61.0518 13.3846 61.2676 14.4671 61.2676 15.7347V18.9824C61.2676 20.2706 61.0244 21.3737 60.5379 22.2918C60.0583 23.21 59.3903 23.9123 58.5338 24.3987C57.6842 24.8784 56.7044 25.1182 55.5944 25.1182ZM56.1699 18.0266C56.629 18.0266 57.0401 17.9341 57.4033 17.7491C57.7664 17.5573 58.0576 17.3038 58.2769 16.9886V15.3853C58.2769 14.2821 58.085 13.4497 57.7013 12.8878C57.3176 12.3191 56.7969 12.0348 56.1391 12.0348C55.7349 12.0348 55.3786 12.1718 55.0702 12.4459C54.7688 12.7131 54.5289 13.0797 54.3508 13.5456C54.1795 14.0047 54.0939 14.5117 54.0939 15.0667C54.0939 15.6696 54.1692 16.1938 54.32 16.6391C54.4776 17.0845 54.7105 17.4271 55.0188 17.6669C55.3272 17.9067 55.7109 18.0266 56.1699 18.0266Z" fill="#27360D"></path> </svg> 