<?xml version="1.0" encoding="UTF-8"?> <svg xmlns="http://www.w3.org/2000/svg" width="72" height="40" viewBox="0 0 72 40" fill="none"> <path d="M71.1404 15.4406C71.1404 31.6393 55.0434 39.8859 35.917 39.8859C16.7906 39.8859 0.101562 30.1667 0.101563 15.4406C0.101563 6.31037 22.0052 0.419922 35.917 0.419922C48.3488 0.419922 71.1404 4.54233 71.1404 15.4406Z" fill="#8BC400"></path> <path d="M33.1371 30.4473C32.9635 30.4473 32.8082 30.4382 32.6712 30.4199C32.5341 30.4017 32.3902 30.372 32.2395 30.3309L32.3354 29.0222C32.4177 29.045 32.5227 29.0656 32.6506 29.0838C32.7831 29.1021 32.9018 29.1112 33.0069 29.1112C33.2718 29.1112 33.4797 29.0016 33.6304 28.7824C33.7811 28.5631 33.8565 28.2593 33.8565 27.8711V21.3071L32.7671 21.1016V20.0395H35.5832V27.8711C35.5832 28.6933 35.3662 29.3282 34.9322 29.7759C34.5029 30.2235 33.9045 30.4473 33.1371 30.4473ZM33.7743 18.3609V16.7644H35.5695V18.3609H33.7743ZM36.8302 27.4531V26.398L37.8648 26.1924V18.032L36.7685 17.8264V16.7644H39.5846V26.1924L40.5507 26.398V27.4531H36.8302ZM41.5647 27.4531V26.4322L42.2156 26.3157L42.1951 26.2883L40.441 23.9724L41.4757 22.7597L44.141 26.2061L45.1276 26.398V27.4531H41.5647ZM39.4201 25.377L38.6527 24.2808L41.8731 21.2249L41.8936 21.1975L41.1194 21.0947V20.0395H44.696V21.1016L43.7436 21.3208L39.4201 25.377ZM45.7648 27.4531V26.398L46.7995 26.1924V18.032L45.7032 17.8264V16.7644H48.5192V26.1924L49.5539 26.398V27.4531H45.7648Z" fill="#27360D"></path> <path d="M18.0228 27.6533C17.1115 27.6533 16.2756 27.4855 15.515 27.1497C14.7613 26.8071 14.1618 26.3207 13.7164 25.6903C13.2711 25.0599 13.0587 24.3063 13.0792 23.4292L13.0998 23.3778L15.9775 23.234C15.9775 23.8986 16.1659 24.4193 16.5428 24.7962C16.9196 25.1661 17.413 25.3511 18.0228 25.3511C18.7216 25.3511 19.2389 25.1011 19.5747 24.6009C19.9104 24.1007 20.0783 23.4532 20.0783 22.6584C20.0783 21.7951 19.9001 21.1031 19.5438 20.5823C19.1876 20.0616 18.6565 19.8012 17.9508 19.8012C17.3821 19.8012 16.9436 19.9074 16.6353 20.1198C16.3338 20.3322 16.118 20.62 15.9878 20.9832L13.3362 20.8084L14.1995 12.4733H22.8121V15.8855H20.9622L20.6949 14.8783H16.6661L16.2447 18.3315C16.4297 18.1945 16.6421 18.0746 16.8819 17.9718C17.1218 17.8622 17.3787 17.7765 17.6528 17.7149C17.9337 17.6464 18.2317 17.6121 18.5469 17.6121C19.5062 17.5984 20.3215 17.7903 20.993 18.1877C21.6713 18.5851 22.1852 19.1606 22.5346 19.9143C22.8909 20.668 23.0691 21.5758 23.0691 22.6379C23.0691 23.5971 22.8738 24.457 22.4832 25.2175C22.0995 25.9712 21.5308 26.5673 20.7772 27.0058C20.0303 27.4375 19.1122 27.6533 18.0228 27.6533Z" fill="#27360D"></path> </svg> 