<?xml version="1.0" encoding="UTF-8"?> <svg xmlns="http://www.w3.org/2000/svg" width="68" height="43" viewBox="0 0 68 43" fill="none"> <path d="M0.947845 33.99C0.947845 42.5215 23.9522 44.4683 40.1733 40.1675C63.4726 33.99 67.6016 23.1059 67.6016 11.0444C63.4726 -1.89913 47.2515 -0.428407 38.1088 1.63066C12.9438 7.29814 0.947845 18.399 0.947845 33.99Z" fill="#8BC400"></path> <path d="M49.8311 26.0312L50.7253 20.9396H47.9062V18.8408H51.0854L51.7188 15.2393H48.85V13.1157H52.0913L53.0103 7.94951H55.283L54.3764 13.1157H56.7608L57.6674 7.94951H59.9524L59.0334 13.1157H61.7656V15.2393H58.6609L58.0275 18.8408H60.8342V20.9396H57.6674L56.7732 26.0312H54.5006L55.3947 20.9396H53.0103L52.1162 26.0312H49.8311ZM53.3705 18.8408H55.7549L56.3882 15.2393H54.0038L53.3705 18.8408Z" fill="#27360D"></path> <path d="M20.7985 23.6056V32.7285H32.3593V23.8623L35.1498 25.6592L26.3796 20.0117L17.6094 25.6592L20.7985 23.6056Z" stroke="#27360D" stroke-width="1.75405" stroke-linecap="square"></path> </svg> 