<?xml version="1.0" encoding="UTF-8"?> <svg xmlns="http://www.w3.org/2000/svg" width="21" height="116" viewBox="0 0 21 116" fill="none"> <rect width="6.77922" height="7.53247" transform="matrix(-1 0 0 1 6.78125 100.936)" fill="#27360D"></rect> <rect width="6.77922" height="7.53247" transform="matrix(-1 0 0 1 13.5547 108.467)" fill="#27360D"></rect> <rect width="6.77922" height="30.1299" transform="matrix(-1 0 0 1 20.3359 85.8711)" fill="#27360D"></rect> <rect width="6.77922" height="21.0909" transform="matrix(-1 0 0 1 20.3359 57.2461)" fill="#27360D"></rect> <rect width="6.77922" height="21.0909" transform="matrix(-1 0 0 1 20.3359 28.623)" fill="#27360D"></rect> <rect width="6.77922" height="21.0909" transform="matrix(-1 0 0 1 20.3359 0)" fill="#27360D"></rect> <rect width="6.77922" height="21.0909" transform="matrix(-1 0 0 1 13.5547 64.7793)" fill="#27360D"></rect> <rect width="6.77922" height="21.0909" transform="matrix(-1 0 0 1 13.5547 36.1562)" fill="#27360D"></rect> <rect width="6.77922" height="21.0909" transform="matrix(-1 0 0 1 13.5547 7.5332)" fill="#27360D"></rect> <rect width="6.77922" height="7.53247" transform="matrix(-1 0 0 1 13.5547 93.4023)" fill="#27360D"></rect> </svg> 