<?xml version="1.0" encoding="UTF-8"?> <svg xmlns="http://www.w3.org/2000/svg" width="540" height="549" viewBox="0 0 540 549" fill="none"> <path d="M167 243.479V318.61H176.079V338.645H185.612V347.752H195.145V356.858H204.678V367.331H213.757V376.438H232.822V386H307.724V376.438H327.243V367.331H336.322V356.858H345.401V347.752H355.388V338.19H364.921V319.065H374V243.935H364.921V224.81H355.842V215.248H345.855V205.686H336.776V196.58H327.243V187.017H308.178V177H232.368V187.017H213.757V196.58H204.678V205.686H195.145V215.248H185.612V224.81H176.079V243.479H167Z" fill="#27360D"></path> <line x1="204.339" y1="150.385" x2="140.339" y2="27.3847" stroke="#27360D" stroke-width="6"></line> <line y1="-3" x2="146.441" y2="-3" transform="matrix(-0.334605 0.942358 0.942358 0.334605 217 409)" stroke="#27360D" stroke-width="6"></line> <line x1="262" y1="134" x2="262" y2="26" stroke="#27360D" stroke-width="6"></line> <line x1="269.999" y1="415.057" x2="267.999" y2="521.057" stroke="#27360D" stroke-width="6"></line> <line x1="312.097" y1="139.243" x2="348.097" y2="1.24273" stroke="#27360D" stroke-width="6"></line> <line y1="-3" x2="142.618" y2="-3" transform="matrix(0.252422 0.967617 0.967617 -0.252422 318 409)" stroke="#27360D" stroke-width="6"></line> <line x1="364.736" y1="164.031" x2="424.736" y2="95.0315" stroke="#27360D" stroke-width="6"></line> <line x1="370.346" y1="387.13" x2="429.346" y2="461.13" stroke="#27360D" stroke-width="6"></line> <line x1="162.879" y1="179.121" x2="90.8787" y2="107.121" stroke="#27360D" stroke-width="6"></line> <line x1="170.334" y1="386.885" x2="107.334" y2="464.885" stroke="#27360D" stroke-width="6"></line> <line x1="395.304" y1="337.298" x2="538.304" y2="406.298" stroke="#27360D" stroke-width="6"></line> <line x1="407.054" y1="272" x2="519.054" y2="274" stroke="#27360D" stroke-width="6"></line> <line x1="27.0536" y1="273" x2="139.054" y2="275" stroke="#27360D" stroke-width="6"></line> <line x1="396.465" y1="212.423" x2="537.465" y2="128.423" stroke="#27360D" stroke-width="6"></line> <line x1="146.742" y1="235.723" x2="1.74164" y2="168.723" stroke="#27360D" stroke-width="6"></line> <line x1="142.229" y1="340.737" x2="4.22944" y2="402.737" stroke="#27360D" stroke-width="6"></line> </svg> 