<?xml version="1.0" encoding="UTF-8"?> <svg xmlns="http://www.w3.org/2000/svg" width="1204" height="93" viewBox="0 0 1204 93" fill="none"> <rect width="18.0301" height="18.0301" transform="matrix(1 0 0 -1 863.43 41.0645)" fill="#27360D" stroke="#27360D" stroke-width="3"></rect> <rect width="18.0301" height="18.0301" transform="matrix(1 0 0 -1 803.336 81.1309)" fill="#27360D" stroke="#27360D" stroke-width="3"></rect> <rect width="18.0301" height="18.0301" transform="matrix(1 0 0 -1 763.273 41.0645)" fill="#27360D" stroke="#27360D" stroke-width="3"></rect> <rect width="18.0301" height="18.0301" transform="matrix(1 0 0 -1 843 60.166)" fill="#27360D" stroke="#27360D" stroke-width="3"></rect> <rect width="18.0301" height="18.0301" transform="matrix(1 0 0 -1 1002 83.166)" fill="#27360D" stroke="#27360D" stroke-width="3"></rect> <rect width="18.0301" height="18.0301" transform="matrix(1 0 0 -1 1124 82.166)" fill="#27360D" stroke="#27360D" stroke-width="3"></rect> <rect width="18.0301" height="18.0301" transform="matrix(1 0 0 -1 1184 63.166)" fill="#27360D" stroke="#27360D" stroke-width="3"></rect> <rect width="18.0301" height="18.0301" transform="matrix(1 0 0 -1 743.242 91.1465)" fill="#27360D" stroke="#27360D" stroke-width="3"></rect> <rect width="18.0301" height="18.0301" transform="matrix(1 0 0 -1 743.242 61.0977)" fill="#27360D" stroke="#27360D" stroke-width="3"></rect> <rect width="18.0301" height="18.0301" transform="matrix(1 0 0 -1 703.164 40.0625)" fill="#27360D" stroke="#27360D" stroke-width="3"></rect> <rect width="18.0301" height="18.0301" transform="matrix(1 0 0 -1 704.172 71.1152)" fill="#27360D" stroke="#27360D" stroke-width="3"></rect> <rect width="18.0301" height="18.0301" transform="matrix(1 0 0 -1 602.484 60.7715)" fill="#27360D" stroke="#27360D" stroke-width="3"></rect> <rect width="18.0301" height="18.0301" transform="matrix(1 0 0 -1 402.648 21)" fill="#27360D" stroke="#27360D" stroke-width="3"></rect> <rect width="18.0301" height="18.0301" transform="matrix(1 0 0 -1 1063.28 40.4004)" fill="#27360D" stroke="#27360D" stroke-width="3"></rect> <rect width="18.0301" height="18.0301" transform="matrix(1 0 0 -1 1002.16 20.998)" fill="#27360D" stroke="#27360D" stroke-width="3"></rect> <rect width="18.0301" height="18.0301" transform="matrix(1 0 0 -1 562.938 82.1348)" fill="#27360D" stroke="#27360D" stroke-width="3"></rect> <rect width="18.0301" height="18.0301" transform="matrix(1 0 0 -1 903.211 20.998)" fill="#27360D" stroke="#27360D" stroke-width="3"></rect> <rect width="18.0301" height="18.0301" transform="matrix(1 0 0 -1 583.078 41.3711)" fill="#27360D" stroke="#27360D" stroke-width="3"></rect> <rect width="18.0301" height="18.0301" transform="matrix(1 0 0 -1 562.711 61.7441)" fill="#27360D" stroke="#27360D" stroke-width="3"></rect> <rect width="18.0301" height="18.0301" transform="matrix(1 0 0 -1 522.938 61.7441)" fill="#27360D" stroke="#27360D" stroke-width="3"></rect> <rect width="18.4317" height="18.4317" transform="matrix(1 0 0 -1 622.852 38.8613)" fill="#27360D" stroke="#27360D" stroke-width="3"></rect> <rect width="18.0301" height="18.0301" transform="matrix(1 0 0 -1 863.43 81.1621)" fill="#27360D" stroke="#27360D" stroke-width="3"></rect> <rect width="18.0301" height="18.0301" transform="matrix(1 0 0 -1 945 82.1641)" fill="#27360D" stroke="#27360D" stroke-width="3"></rect> <rect width="18.0301" height="18.0301" transform="matrix(1 0 0 -1 582.969 82.1348)" fill="#27360D" stroke="#27360D" stroke-width="3"></rect> <rect width="18.0301" height="18.0301" transform="matrix(1 0 0 -1 1022.53 61.7441)" fill="#27360D" stroke="#27360D" stroke-width="3"></rect> <rect width="18.0301" height="18.0301" transform="matrix(1 0 0 -1 502.57 41.3711)" fill="#27360D" stroke="#27360D" stroke-width="3"></rect> <rect width="18.0301" height="18.0301" transform="matrix(1 0 0 -1 965.609 61.1895)" fill="#27360D" stroke="#27360D" stroke-width="3"></rect> <rect width="18.0301" height="18.0301" transform="matrix(1 0 0 -1 783.305 21.0312)" fill="#27360D" stroke="#27360D" stroke-width="3"></rect> <rect width="18.0301" height="18.0301" transform="matrix(1 0 0 -1 743.242 21.0312)" fill="#27360D" stroke="#27360D" stroke-width="3"></rect> <rect width="18.0301" height="18.0301" transform="matrix(1 0 0 -1 222.367 21.0312)" fill="#27360D" stroke="#27360D" stroke-width="3"></rect> <rect width="18.0301" height="18.0301" transform="matrix(1 0 0 -1 282.469 82.1328)" fill="#27360D" stroke="#27360D" stroke-width="3"></rect> <rect width="18.0301" height="18.0301" transform="matrix(1 0 0 -1 622.852 79.2051)" fill="#27360D" stroke="#27360D" stroke-width="3"></rect> <rect width="18.0301" height="18.0301" transform="matrix(1 0 0 -1 1083.8 82.1328)" fill="#27360D" stroke="#27360D" stroke-width="3"></rect> <rect width="18.0301" height="18.0301" transform="matrix(1 0 0 -1 302.5 62.0996)" fill="#27360D" stroke="#27360D" stroke-width="3"></rect> <rect width="18.0301" height="18.0301" transform="matrix(1 0 0 -1 1103.84 62.0996)" fill="#27360D" stroke="#27360D" stroke-width="3"></rect> <rect width="18.0301" height="18.0301" transform="matrix(1 0 0 -1 2 21.0312)" fill="#27360D" stroke="#27360D" stroke-width="3"></rect> <rect width="18.0301" height="18.0301" transform="matrix(1 0 0 -1 522.938 20.998)" fill="#27360D" stroke="#27360D" stroke-width="3"></rect> <rect width="18.0301" height="18.0301" transform="matrix(1 0 0 -1 442.734 21.0312)" fill="#27360D" stroke="#27360D" stroke-width="3"></rect> <rect width="18.0301" height="18.0301" transform="matrix(1 0 0 -1 422.703 62.0996)" fill="#27360D" stroke="#27360D" stroke-width="3"></rect> <rect width="18.0301" height="18.0301" transform="matrix(1 0 0 -1 462.797 62.7129)" fill="#27360D" stroke="#27360D" stroke-width="3"></rect> <rect width="18.0301" height="18.0301" transform="matrix(1 0 0 -1 382.633 81.502)" fill="#27360D" stroke="#27360D" stroke-width="3"></rect> <rect width="18.0301" height="18.0301" transform="matrix(1 0 0 -1 683.133 21.0312)" fill="#27360D" stroke="#27360D" stroke-width="3"></rect> <rect width="18.0301" height="18.0301" transform="matrix(1 0 0 -1 663.102 39.0605)" fill="#27360D" stroke="#27360D" stroke-width="3"></rect> <rect width="18.0301" height="18.0301" transform="matrix(1 0 0 -1 663.102 59.0957)" fill="#27360D" stroke="#27360D" stroke-width="3"></rect> <rect width="18.0301" height="18.0301" transform="matrix(1 0 0 -1 462.766 21.0312)" fill="#27360D" stroke="#27360D" stroke-width="3"></rect> <rect width="18.0301" height="18.0301" transform="matrix(1 0 0 -1 422.703 82.1328)" fill="#27360D" stroke="#27360D" stroke-width="3"></rect> <rect width="18.0301" height="18.0301" transform="matrix(1 0 0 -1 342.57 21.0625)" fill="#27360D" stroke="#27360D" stroke-width="3"></rect> <rect width="18.0301" height="18.0301" transform="matrix(1 0 0 -1 382.633 21.0312)" fill="#27360D" stroke="#27360D" stroke-width="3"></rect> <rect width="18.0301" height="18.0301" transform="matrix(1 0 0 -1 362.602 61.4688)" fill="#27360D" stroke="#27360D" stroke-width="3"></rect> <rect width="18.0301" height="18.0301" transform="matrix(1 0 0 -1 362.602 81.502)" fill="#27360D" stroke="#27360D" stroke-width="3"></rect> <rect width="18.0301" height="18.0301" transform="matrix(1 0 0 -1 482.188 82.1152)" fill="#27360D" stroke="#27360D" stroke-width="3"></rect> <rect width="18.0301" height="18.0301" transform="matrix(1 0 0 -1 282.469 62.0996)" fill="#27360D" stroke="#27360D" stroke-width="3"></rect> <rect width="18.0301" height="18.0301" transform="matrix(1 0 0 -1 302.5 42.0664)" fill="#27360D" stroke="#27360D" stroke-width="3"></rect> <rect width="18.0301" height="18.0301" transform="matrix(1 0 0 -1 642.062 79.127)" fill="#27360D" stroke="#27360D" stroke-width="3"></rect> <rect width="18.0301" height="18.0301" transform="matrix(1 0 0 -1 1103.84 42.0664)" fill="#27360D" stroke="#27360D" stroke-width="3"></rect> <rect width="18.0301" height="18.0301" transform="matrix(1 0 0 -1 603 21.0312)" fill="#27360D" stroke="#27360D" stroke-width="3"></rect> <rect width="18.0301" height="18.0301" transform="matrix(1 0 0 -1 522.938 82.1152)" fill="#27360D" stroke="#27360D" stroke-width="3"></rect> <rect width="18.0301" height="18.0301" transform="matrix(1 0 0 -1 402.648 41.3711)" fill="#27360D" stroke="#27360D" stroke-width="3"></rect> <rect width="18.0301" height="18.0301" transform="matrix(1 0 0 -1 783.305 41.0645)" fill="#27360D" stroke="#27360D" stroke-width="3"></rect> <rect width="18.0301" height="18.0301" transform="matrix(1 0 0 -1 163.273 38.0605)" fill="#27360D" stroke="#27360D" stroke-width="3"></rect> <rect width="18.0301" height="18.0301" transform="matrix(1 0 0 -1 282.359 21)" fill="#27360D" stroke="#27360D" stroke-width="3"></rect> <rect width="18.0301" height="18.0301" transform="matrix(1 0 0 -1 22.0312 41.0645)" fill="#27360D" stroke="#27360D" stroke-width="3"></rect> <rect width="18.0301" height="18.0301" transform="matrix(1 0 0 -1 42.9688 81.1621)" fill="#27360D" stroke="#27360D" stroke-width="3"></rect> <rect width="18.0301" height="18.0301" transform="matrix(1 0 0 -1 241.609 60.7441)" fill="#27360D" stroke="#27360D" stroke-width="3"></rect> <rect width="18.0301" height="18.0301" transform="matrix(1 0 0 -1 143.234 81.0684)" fill="#27360D" stroke="#27360D" stroke-width="3"></rect> <rect width="18.0301" height="18.0301" transform="matrix(1 0 0 -1 102.891 82.1152)" fill="#27360D" stroke="#27360D" stroke-width="3"></rect> <rect width="18.0301" height="18.0301" transform="matrix(1 0 0 -1 63.0391 61.0996)" fill="#27360D" stroke="#27360D" stroke-width="3"></rect> <rect width="18.0301" height="18.0301" transform="matrix(1 0 0 -1 122.203 40.0625)" fill="#27360D" stroke="#27360D" stroke-width="3"></rect> <rect width="18.0301" height="18.0301" transform="matrix(1 0 0 -1 63.0391 41.0645)" fill="#27360D" stroke="#27360D" stroke-width="3"></rect> <rect width="18.0301" height="18.0301" transform="matrix(1 0 0 -1 103.859 40.4004)" fill="#27360D" stroke="#27360D" stroke-width="3"></rect> <rect width="18.0301" height="18.0301" transform="matrix(1 0 0 -1 122.203 20.0293)" fill="#27360D" stroke="#27360D" stroke-width="3"></rect> <rect width="18.0301" height="18.0301" transform="matrix(1 0 0 -1 2 82.1152)" fill="#27360D" stroke="#27360D" stroke-width="3"></rect> <rect width="18.0301" height="18.0301" transform="matrix(1 0 0 -1 1062.8 61.1309)" fill="#27360D" stroke="#27360D" stroke-width="3"></rect> <rect width="18.0301" height="18.0301" transform="matrix(1 0 0 -1 63.1172 81.1465)" fill="#27360D" stroke="#27360D" stroke-width="3"></rect> <rect width="18.0301" height="18.0301" transform="matrix(1 0 0 -1 143.234 61.0352)" fill="#27360D" stroke="#27360D" stroke-width="3"></rect> <rect width="18.0301" height="18.0301" transform="matrix(1 0 0 -1 163.273 58.123)" fill="#27360D" stroke="#27360D" stroke-width="3"></rect> <rect width="18.0301" height="18.0301" transform="matrix(1 0 0 -1 202.805 21)" fill="#27360D" stroke="#27360D" stroke-width="3"></rect> <rect width="18.0301" height="18.0301" transform="matrix(1 0 0 -1 261.984 82.1152)" fill="#27360D" stroke="#27360D" stroke-width="3"></rect> <rect width="18.0301" height="18.0301" transform="matrix(1 0 0 -1 221.242 81.1445)" fill="#27360D" stroke="#27360D" stroke-width="3"></rect> <rect width="18.0301" height="18.0301" transform="matrix(1 0 0 -1 202.805 41.3711)" fill="#27360D" stroke="#27360D" stroke-width="3"></rect> <rect width="18.0301" height="18.0301" transform="matrix(1 0 0 -1 783.305 61.0977)" fill="#27360D" stroke="#27360D" stroke-width="3"></rect> <rect width="18.0301" height="18.0301" transform="matrix(1 0 0 -1 342.57 41.0957)" fill="#27360D" stroke="#27360D" stroke-width="3"></rect> <rect width="18.0301" height="18.0301" transform="matrix(1 0 0 -1 903.508 41.8145)" fill="#27360D" stroke="#27360D" stroke-width="3"></rect> <rect width="18.0301" height="18.0301" transform="matrix(1 0 0 -1 883.469 81.1309)" fill="#27360D" stroke="#27360D" stroke-width="3"></rect> <rect width="18.0301" height="18.0301" transform="matrix(1 0 0 -1 965.609 41.1562)" fill="#27360D" stroke="#27360D" stroke-width="3"></rect> <rect width="18.0301" height="18.0301" transform="matrix(1 0 0 -1 1022.7 41.2227)" fill="#27360D" stroke="#27360D" stroke-width="3"></rect> <rect width="18.0301" height="18.0301" transform="matrix(1 0 0 -1 1083.8 21.0312)" fill="#27360D" stroke="#27360D" stroke-width="3"></rect> <rect width="18.0301" height="18.0301" transform="matrix(1 0 0 -1 1123.87 42.0664)" fill="#27360D" stroke="#27360D" stroke-width="3"></rect> <rect width="18.0301" height="18.0301" transform="matrix(1 0 0 -1 623.039 21.0312)" fill="#27360D" stroke="#27360D" stroke-width="3"></rect> <rect width="18.0301" height="18.0301" transform="matrix(1 0 0 -1 1042.91 20.998)" fill="#27360D" stroke="#27360D" stroke-width="3"></rect> <rect width="18.0301" height="18.0301" transform="matrix(1 0 0 -1 1143.9 62.0996)" fill="#27360D" stroke="#27360D" stroke-width="3"></rect> <rect width="18.0301" height="18.0301" transform="matrix(1 0 0 -1 944.539 21.0312)" fill="#27360D" stroke="#27360D" stroke-width="3"></rect> <rect width="18.0301" height="18.0301" transform="matrix(1 0 0 -1 1002 62.166)" fill="#27360D" stroke="#27360D" stroke-width="3"></rect> <rect width="18.0301" height="18.0301" transform="matrix(1 0 0 -1 562.938 21.0312)" fill="#27360D" stroke="#27360D" stroke-width="3"></rect> <rect width="18.0301" height="18.0301" transform="matrix(1 0 0 -1 323.102 20.998)" fill="#27360D" stroke="#27360D" stroke-width="3"></rect> <rect width="18.0301" height="18.0301" transform="matrix(1 0 0 -1 823.367 21.0312)" fill="#27360D" stroke="#27360D" stroke-width="3"></rect> <rect width="18.0301" height="18.0301" transform="matrix(1 0 0 -1 322.531 62.0996)" fill="#27360D" stroke="#27360D" stroke-width="3"></rect> <rect width="18.0301" height="18.0301" transform="matrix(1 0 0 -1 1163.94 42.0664)" fill="#27360D" stroke="#27360D" stroke-width="3"></rect> <rect width="18.0301" height="18.0301" transform="matrix(1 0 0 -1 823.367 41.0645)" fill="#27360D" stroke="#27360D" stroke-width="3"></rect> <rect width="18.0301" height="18.0301" transform="matrix(1 0 0 -1 1183.97 21.0312)" fill="#27360D" stroke="#27360D" stroke-width="3"></rect> <rect width="18.0301" height="18.0301" transform="matrix(1 0 0 -1 1183.97 82.1152)" fill="#27360D" stroke="#27360D" stroke-width="3"></rect> <rect width="18.0301" height="18.0301" transform="matrix(1 0 0 -1 843.398 21.0312)" fill="#27360D" stroke="#27360D" stroke-width="3"></rect> <rect width="18.0301" height="18.0301" transform="matrix(1 0 0 -1 262.438 21.0312)" fill="#27360D" stroke="#27360D" stroke-width="3"></rect> <rect width="18.0301" height="18.0301" transform="matrix(1 0 0 -1 42.0625 21.0312)" fill="#27360D" stroke="#27360D" stroke-width="3"></rect> <rect width="18.0301" height="18.0301" transform="matrix(1 0 0 -1 803.336 61.0977)" fill="#27360D" stroke="#27360D" stroke-width="3"></rect> <rect width="18.0301" height="18.0301" transform="matrix(1 0 0 -1 923.539 41.8145)" fill="#27360D" stroke="#27360D" stroke-width="3"></rect> </svg> 