<?xml version="1.0" encoding="UTF-8"?> <svg xmlns="http://www.w3.org/2000/svg" width="68" height="43" viewBox="0 0 68 43" fill="none"> <path d="M67.4272 33.99C67.4272 42.5215 44.4228 44.4683 28.2017 40.1675C4.90243 33.99 0.773438 23.1059 0.773438 11.0444C4.90243 -1.89913 21.1235 -0.428407 30.2662 1.63066C55.4312 7.29814 67.4272 18.399 67.4272 33.99Z" fill="#8BC400"></path> <path d="M38.5953 34.5639V30.1137H34.7001V27.8424H38.5953V23.6697H41.0928V27.8424H44.9572V30.1137H41.0928V34.5639H38.5953Z" fill="#27360D"></path> <path d="M17.6713 23.3595L14.6737 18.3919L11.7103 23.2053L9.10662 21.3896L12.6695 16.7304L7.49646 15.2059L8.47283 12.174L13.5602 14.2809L13.2519 8.33701H16.4722L16.1297 14.3837L21.1143 12.3282L22.0735 15.4114L16.832 16.9359L20.2578 21.4752L17.6713 23.3595Z" fill="#27360D"></path> </svg> 