<?xml version="1.0" encoding="UTF-8"?> <svg xmlns="http://www.w3.org/2000/svg" width="72" height="41" viewBox="0 0 72 41" fill="none"> <path d="M71.1404 16.0146C71.1404 32.5733 55.0434 41.0032 35.917 41.0032C16.7906 41.0032 0.101562 31.068 0.101563 16.0146C0.101563 6.68151 22.0052 0.660156 35.917 0.660156C48.3488 0.660156 71.1404 4.87417 71.1404 16.0146Z" fill="#8BC400"></path> <path d="M34.5917 27.8353C33.838 27.8353 33.251 27.6412 32.8308 27.2529C32.4105 26.8646 32.2004 26.3302 32.2004 25.6496C32.2004 25.1837 32.3283 24.7748 32.5841 24.4231C32.8399 24.0714 33.2145 23.7973 33.7078 23.6009C34.2011 23.3999 34.7995 23.2994 35.503 23.2994H36.6335V22.6759C36.6335 22.2831 36.5147 21.9702 36.2772 21.7372C36.0442 21.5043 35.7039 21.3878 35.2563 21.3878C35.0005 21.3878 34.7744 21.4198 34.578 21.4837C34.3816 21.5431 34.2057 21.6299 34.0504 21.7441L33.8928 22.7445H32.6252L32.6115 20.915C32.977 20.6775 33.3835 20.4902 33.8311 20.3532C34.2788 20.2116 34.7767 20.1408 35.3248 20.1408C36.2658 20.1408 37.0058 20.3623 37.5448 20.8054C38.0883 21.2439 38.3601 21.8743 38.3601 22.6965V25.9648C38.3601 26.0653 38.3601 26.1635 38.3601 26.2594C38.3647 26.3553 38.3716 26.449 38.3807 26.5403L39.1344 26.6362V27.6914H36.8802C36.8345 27.5315 36.7911 27.3762 36.75 27.2255C36.7134 27.0747 36.686 26.924 36.6678 26.7733C36.4211 27.0839 36.1219 27.3397 35.7702 27.5407C35.423 27.7371 35.0302 27.8353 34.5917 27.8353ZM34.9822 26.4992C35.3294 26.4992 35.6537 26.4193 35.9552 26.2594C36.2566 26.095 36.4828 25.8894 36.6335 25.6427V24.4026H35.4824C34.9662 24.4026 34.5757 24.5236 34.3108 24.7657C34.0504 25.0032 33.9202 25.2819 33.9202 25.6016C33.9202 25.8894 34.0116 26.1109 34.1943 26.2662C34.377 26.4216 34.6396 26.4992 34.9822 26.4992ZM44.1499 27.8353C43.6839 27.8353 43.282 27.7439 42.9439 27.5612C42.6059 27.3785 42.3227 27.1136 42.0943 26.7664L41.9573 27.6914H40.4705V18.2703L39.381 18.0647V17.0027H42.1903V21.1069C42.4141 20.7917 42.6881 20.5519 43.0125 20.3875C43.3413 20.223 43.7228 20.1408 44.1567 20.1408C44.7642 20.1408 45.2781 20.3052 45.6983 20.6341C46.1232 20.9584 46.4475 21.4152 46.6713 22.0045C46.8951 22.5937 47.007 23.2857 47.007 24.0805V24.2244C47.007 24.9461 46.8951 25.5788 46.6713 26.1224C46.4475 26.6659 46.1232 27.0885 45.6983 27.3899C45.2735 27.6868 44.7574 27.8353 44.1499 27.8353ZM43.6565 26.4718C44.2229 26.4718 44.634 26.2731 44.8898 25.8757C45.1502 25.4737 45.2804 24.9233 45.2804 24.2244V24.0805C45.2804 23.5598 45.2233 23.1076 45.1091 22.7239C44.9949 22.3356 44.819 22.0364 44.5815 21.8263C44.344 21.6116 44.0379 21.5043 43.6634 21.5043C43.3162 21.5043 43.0193 21.5888 42.7727 21.7578C42.5306 21.9222 42.3364 22.1461 42.1903 22.4293V25.5948C42.341 25.8734 42.5374 26.0904 42.7795 26.2457C43.0262 26.3964 43.3185 26.4718 43.6565 26.4718ZM51.5771 27.8353C50.8828 27.8353 50.2799 27.6777 49.7683 27.3625C49.2613 27.0428 48.8684 26.6043 48.5898 26.047C48.3157 25.4851 48.1787 24.8388 48.1787 24.1079V23.8681C48.1787 23.151 48.3157 22.5115 48.5898 21.9496C48.8639 21.3878 49.2544 20.947 49.7614 20.6273C50.273 20.3029 50.876 20.1408 51.5703 20.1408C52.2052 20.1408 52.7579 20.2436 53.2284 20.4491C53.6989 20.6501 54.0849 20.9013 54.3864 21.2028L54.3932 23.183H53.0777L52.8242 21.8743C52.6963 21.7418 52.5341 21.6368 52.3377 21.5591C52.1413 21.4769 51.9266 21.4358 51.6936 21.4358C51.3145 21.4358 50.9902 21.5385 50.7207 21.7441C50.4557 21.9496 50.2525 22.2351 50.1109 22.6006C49.9738 22.9614 49.9053 23.3839 49.9053 23.8681V24.1079C49.9053 24.6287 49.9761 25.0672 50.1177 25.4235C50.2593 25.7798 50.4557 26.0493 50.707 26.232C50.9628 26.4147 51.2551 26.5061 51.584 26.5061C51.9814 26.5061 52.3034 26.3987 52.5501 26.184C52.8013 25.9693 52.9658 25.6724 53.0434 25.2933H54.5371L54.5576 25.3344C54.5028 25.8186 54.3589 26.2503 54.126 26.6294C53.8976 27.0039 53.5733 27.2986 53.153 27.5133C52.7374 27.7279 52.2121 27.8353 51.5771 27.8353Z" fill="#27360D"></path> <path d="M14.0492 27.6758V25.7128L18.9002 20.502C19.3935 19.947 19.7807 19.464 20.0616 19.0529C20.3425 18.6418 20.5412 18.2683 20.6577 17.9326C20.781 17.59 20.8427 17.2509 20.8427 16.9151C20.8427 16.3327 20.6748 15.8394 20.3391 15.4351C20.0102 15.0309 19.5237 14.8288 18.8797 14.8288C18.1876 14.8288 17.6635 15.0549 17.3072 15.5071C16.9509 15.9525 16.7728 16.5691 16.7728 17.3571H13.8539L13.8334 17.2954C13.8128 16.391 14.0047 15.579 14.4089 14.8596C14.82 14.1333 15.4093 13.5578 16.1767 13.133C16.9509 12.7082 17.8622 12.4958 18.9105 12.4958C19.9383 12.4958 20.8187 12.6807 21.5518 13.0507C22.2918 13.4139 22.8605 13.9243 23.2579 14.5821C23.6553 15.2399 23.854 16.0004 23.854 16.8637C23.854 17.4598 23.7478 18.0217 23.5354 18.5493C23.323 19.07 22.9907 19.6216 22.5385 20.204C22.0863 20.7864 21.5039 21.4544 20.7913 22.2081L17.8827 25.3325L17.9033 25.3839H21.778L21.9321 23.9553H24.2549V27.6758H14.0492Z" fill="#27360D"></path> </svg> 