<?xml version="1.0" encoding="UTF-8"?> <svg xmlns="http://www.w3.org/2000/svg" width="72" height="41" viewBox="0 0 72 41" fill="none"> <path d="M71.1404 15.4189C71.1404 31.9776 55.0434 40.4075 35.917 40.4075C16.7906 40.4075 0.101562 30.4723 0.101563 15.4189C0.101563 6.0858 22.0052 0.0644531 35.917 0.0644531C48.3488 0.0644531 71.1404 4.27847 71.1404 15.4189Z" fill="#8BC400"></path> <path d="M19.3319 29.0498C17.7697 29.0498 16.5329 28.5394 15.6217 27.5185C14.7104 26.4907 14.2547 24.9867 14.2547 23.0066V19.7075C14.2547 17.7342 14.707 16.2336 15.6114 15.2059C16.5227 14.1713 17.756 13.654 19.3113 13.654C20.8598 13.654 22.0897 14.1713 23.001 15.2059C23.9191 16.2336 24.3782 17.7342 24.3782 19.7075V23.0066C24.3782 24.9867 23.9225 26.4907 23.0113 27.5185C22.1068 28.5394 20.8804 29.0498 19.3319 29.0498ZM19.3319 26.7476C20.0034 26.7476 20.5138 26.4736 20.8632 25.9254C21.2127 25.3773 21.3874 24.5003 21.3874 23.2944V19.3991C21.3874 18.2069 21.2093 17.3368 20.853 16.7886C20.4967 16.2405 19.9828 15.9664 19.3113 15.9664C18.633 15.9664 18.1191 16.2405 17.7697 16.7886C17.4202 17.3368 17.2455 18.2069 17.2455 19.3991V23.2944C17.2455 24.5003 17.4202 25.3773 17.7697 25.9254C18.126 26.4736 18.6467 26.7476 19.3319 26.7476Z" fill="#27360D"></path> <path d="M32.5547 24.6211V28.1292H50.9722V24.6211" stroke="#27360D" stroke-width="1.75405" stroke-linecap="square"></path> </svg> 