<?xml version="1.0" encoding="UTF-8"?> <svg xmlns="http://www.w3.org/2000/svg" width="100" height="83" viewBox="0 0 100 83" fill="none"> <path d="M8.79293 33.5409C1.107 34.0524 -0.28055 37.4221 1.62515 48.0544L4.91038 75.8968C7.56069 81.7321 9.99206 83.9454 19.5446 81.8207C38.6582 75.8968 75.6918 56.6442 97.4943 21.3969C100.48 13.6959 101.078 14.8807 97.4943 8.36426L88.2359 2.14416C83.1684 -0.647161 81.0338 -0.318827 77.7829 2.14416C50.4922 21.798 35.4011 28.3676 8.79293 33.5409Z" fill="#8BC400"></path> <path d="M24.1069 46.2148L18.9849 57.2468C18.715 57.8281 19.1395 58.4932 19.7804 58.4932H31.5616" stroke="#27360D" stroke-width="4.38511" stroke-linecap="round"></path> <path d="M72.7618 16.1952L84.7273 14.012C85.3578 13.8969 85.8947 14.475 85.7335 15.0953L82.771 26.4979" stroke="#27360D" stroke-width="4.38511" stroke-linecap="round"></path> </svg> 