<?xml version="1.0" encoding="UTF-8"?> <svg xmlns="http://www.w3.org/2000/svg" width="67" height="58" viewBox="0 0 67 58" fill="none"> <rect x="56" y="27" width="5" height="5" fill="#C73125" stroke="#C73125" stroke-width="1.5"></rect> <rect x="31" y="12" width="5" height="5" fill="#C73125" stroke="#C73125" stroke-width="1.5"></rect> <rect x="6" y="6" width="5" height="5" fill="#C73125" stroke="#C73125" stroke-width="1.5"></rect> <rect x="6" y="27" width="5" height="5" fill="#C73125" stroke="#C73125" stroke-width="1.5"></rect> <rect x="11" y="32" width="5" height="5" fill="#C73125" stroke="#C73125" stroke-width="1.5"></rect> <rect x="16" y="37" width="5" height="5" fill="#C73125" stroke="#C73125" stroke-width="1.5"></rect> <rect x="21" y="42" width="5" height="5" fill="#C73125" stroke="#C73125" stroke-width="1.5"></rect> <rect x="26" y="47" width="5" height="5" fill="#C73125" stroke="#C73125" stroke-width="1.5"></rect> <rect x="31" y="52" width="5" height="5" fill="#C73125" stroke="#C73125" stroke-width="1.5"></rect> <rect x="36" y="47" width="5" height="5" fill="#C73125" stroke="#C73125" stroke-width="1.5"></rect> <rect x="41" y="42" width="5" height="5" fill="#C73125" stroke="#C73125" stroke-width="1.5"></rect> <rect x="46" y="37" width="5" height="5" fill="#C73125" stroke="#C73125" stroke-width="1.5"></rect> <rect x="51" y="32" width="5" height="5" fill="#C73125" stroke="#C73125" stroke-width="1.5"></rect> <rect x="56" y="6" width="5" height="5" fill="#C73125" stroke="#C73125" stroke-width="1.5"></rect> <rect x="61" y="11" width="5" height="16" fill="#C73125" stroke="#C73125" stroke-width="1.5"></rect> <rect x="1" y="11" width="5" height="16" fill="#C73125" stroke="#C73125" stroke-width="1.5"></rect> <rect x="11" y="1" width="14" height="5" fill="#C73125" stroke="#C73125" stroke-width="1.5"></rect> <rect x="41" y="1" width="15" height="5" fill="#C73125" stroke="#C73125" stroke-width="1.5"></rect> <rect x="36" y="6" width="5" height="5" fill="#C73125" stroke="#C73125" stroke-width="1.5"></rect> <rect x="26" y="6" width="5" height="5" fill="#C73125" stroke="#C73125" stroke-width="1.5"></rect> </svg> 