<?xml version="1.0" encoding="UTF-8"?> <svg xmlns="http://www.w3.org/2000/svg" width="1000" height="293" viewBox="0 0 1000 293" fill="none"> <path fill-rule="evenodd" clip-rule="evenodd" d="M623.5 -9.53674e-06V13.0003H620.067C617.019 13.0003 615.439 13.0003 615.439 13.0003V22.0003C615.439 22.0003 614.702 22.0003 610.393 22.0003H606V89.0002V156H594.514H583.028L582.764 124.75V93.1992H573.382V79.8332V67.5482C565.777 67.6052 543.923 67.5482 543.923 67.5482V160.5C543.923 160.5 527.019 160.786 525 160.5C525 160.5 525 104.516 525 85.0002H481.02L480.76 131.75L480.5 178.5H471C471 178.5 471 160.462 471 149.641V136.5H457.5L457.229 116.75L456.958 97.0002H439.979H423V132.531C423 171.598 423 172 423 172H406.95H389C388.768 164.479 389 151 389 151C389 151 389 147.072 389 127.273C389 107.33 389 103 389 103H385C385 103 385 100.576 385 99.0002H373C373 100.576 373 103 373 103H368.777V121.124V136.5H359.217V125.813V115.126H352.5V111V108.009H344.142V111H318.81C318.502 114.732 318.81 118.5 318.81 118.5H309.5L309.223 103.75L308.947 89.0002H290H271.053L270.777 103.75L270.5 118.5L256.739 118.778C256.739 118.778 226.966 118.778 217.5 118.778V178.5H209C201.562 178.5 201 178.5 201 178.5V173.5C195.343 173.5 189 173.5 189 173.5V178.5H176.78V191.799V204.5H165V147H142H119V151.846C119 157.221 119.5 190.795 119.5 190.795H101.788H94.788V199.795V208.5H87H78.924V191.116H71.238V152.795L70.976 115.091H56.947V85.0002H0V84.5002V188.75V293H500H1000V254V215H995.5V222.772H955V219.445H939.5V244.765H923.015C923.015 244.765 923.024 240.012 923.015 235.75L923 223.795H913.5C913.5 223.795 913.5 222.933 913.5 219C913.5 219 899.613 219 896.857 219C896.857 219 896.857 225 896.857 228H889.115V236.5H879H869.5L869.234 209.75L869 182.785C864.962 182.785 835.796 182.785 835.796 182.785H825.24V133.75L824.981 85.0002L817.24 84.7742C798.475 84.2252 790.758 84.5032 790.275 85.7432C790.009 86.4272 789.726 98.3523 789.646 112.243L789.5 137.5H785H780V93.5002H767H754.5V147.5H722V174H715.029H708.058L707.779 160.75L707.5 147.5H688.5H669.5L669.232 171.75L668.964 196H663.996H659.027L658.763 162.75L658.5 129.5L652.25 129.202L646 128.905L645.984 116.702C645.951 92.2183 644.846 23.2163 644.46 22.0003H636V17.5003V13.0003H631.5H627V6.10352e-05L623.5 -9.53674e-06Z" fill="#27360D"></path> </svg> 